<?xml version="1.0" encoding="utf-8" standalone="no"?>
<!DOCTYPE svg PUBLIC "-//W3C//DTD SVG 1.1//EN"
  "http://www.w3.org/Graphics/SVG/1.1/DTD/svg11.dtd">
<!-- Created with matplotlib (https://matplotlib.org/) -->
<svg height="260.69666pt" version="1.1" viewBox="0 0 669.140625 260.69666" width="669.140625pt" xmlns="http://www.w3.org/2000/svg" xmlns:xlink="http://www.w3.org/1999/xlink">
 <metadata>
  <rdf:RDF xmlns:cc="http://creativecommons.org/ns#" xmlns:dc="http://purl.org/dc/elements/1.1/" xmlns:rdf="http://www.w3.org/1999/02/22-rdf-syntax-ns#">
   <cc:Work>
    <dc:type rdf:resource="http://purl.org/dc/dcmitype/StillImage"/>
    <dc:date>2021-10-13T22:12:13.000512</dc:date>
    <dc:format>image/svg+xml</dc:format>
    <dc:creator>
     <cc:Agent>
      <dc:title>Matplotlib v3.3.4, https://matplotlib.org/</dc:title>
     </cc:Agent>
    </dc:creator>
   </cc:Work>
  </rdf:RDF>
 </metadata>
 <defs>
  <style type="text/css">*{stroke-linecap:butt;stroke-linejoin:round;}</style>
 </defs>
 <g id="figure_1">
  <g id="patch_1">
   <path d="M 0 260.69666 
L 669.140625 260.69666 
L 669.140625 0 
L 0 0 
z
" style="fill:#ffffff;"/>
  </g>
  <g id="axes_1">
   <g id="patch_2">
    <path d="M 324.852857 188.530125 
L 494.567143 188.530125 
L 494.567143 42.730125 
L 324.852857 42.730125 
z
" style="fill:#ffffff;"/>
   </g>
   <g id="matplotlib.axis_1">
    <g id="xtick_1">
     <g id="line2d_1">
      <defs>
       <path d="M 0 0 
L 0 6 
" id="m2703ed4df7" style="stroke:#262626;stroke-width:1.25;"/>
      </defs>
      <g>
       <use style="fill:#262626;stroke:#262626;stroke-width:1.25;" x="332.567143" xlink:href="#m2703ed4df7" y="188.530125"/>
      </g>
     </g>
     <g id="text_1">
      <!-- 0 -->
      <g style="fill:#262626;" transform="translate(329.067768 206.388406)scale(0.11 -0.11)">
       <defs>
        <path d="M 31.78125 66.40625 
Q 24.171875 66.40625 20.328125 58.90625 
Q 16.5 51.421875 16.5 36.375 
Q 16.5 21.390625 20.328125 13.890625 
Q 24.171875 6.390625 31.78125 6.390625 
Q 39.453125 6.390625 43.28125 13.890625 
Q 47.125 21.390625 47.125 36.375 
Q 47.125 51.421875 43.28125 58.90625 
Q 39.453125 66.40625 31.78125 66.40625 
z
M 31.78125 74.21875 
Q 44.046875 74.21875 50.515625 64.515625 
Q 56.984375 54.828125 56.984375 36.375 
Q 56.984375 17.96875 50.515625 8.265625 
Q 44.046875 -1.421875 31.78125 -1.421875 
Q 19.53125 -1.421875 13.0625 8.265625 
Q 6.59375 17.96875 6.59375 36.375 
Q 6.59375 54.828125 13.0625 64.515625 
Q 19.53125 74.21875 31.78125 74.21875 
z
" id="DejaVuSans-48"/>
       </defs>
       <use xlink:href="#DejaVuSans-48"/>
      </g>
     </g>
    </g>
    <g id="xtick_2">
     <g id="line2d_2">
      <g>
       <use style="fill:#262626;stroke:#262626;stroke-width:1.25;" x="371.138571" xlink:href="#m2703ed4df7" y="188.530125"/>
      </g>
     </g>
     <g id="text_2">
      <!-- 25 -->
      <g style="fill:#262626;" transform="translate(364.139821 206.388406)scale(0.11 -0.11)">
       <defs>
        <path d="M 19.1875 8.296875 
L 53.609375 8.296875 
L 53.609375 0 
L 7.328125 0 
L 7.328125 8.296875 
Q 12.9375 14.109375 22.625 23.890625 
Q 32.328125 33.6875 34.8125 36.53125 
Q 39.546875 41.84375 41.421875 45.53125 
Q 43.3125 49.21875 43.3125 52.78125 
Q 43.3125 58.59375 39.234375 62.25 
Q 35.15625 65.921875 28.609375 65.921875 
Q 23.96875 65.921875 18.8125 64.3125 
Q 13.671875 62.703125 7.8125 59.421875 
L 7.8125 69.390625 
Q 13.765625 71.78125 18.9375 73 
Q 24.125 74.21875 28.421875 74.21875 
Q 39.75 74.21875 46.484375 68.546875 
Q 53.21875 62.890625 53.21875 53.421875 
Q 53.21875 48.921875 51.53125 44.890625 
Q 49.859375 40.875 45.40625 35.40625 
Q 44.1875 33.984375 37.640625 27.21875 
Q 31.109375 20.453125 19.1875 8.296875 
z
" id="DejaVuSans-50"/>
        <path d="M 10.796875 72.90625 
L 49.515625 72.90625 
L 49.515625 64.59375 
L 19.828125 64.59375 
L 19.828125 46.734375 
Q 21.96875 47.46875 24.109375 47.828125 
Q 26.265625 48.1875 28.421875 48.1875 
Q 40.625 48.1875 47.75 41.5 
Q 54.890625 34.8125 54.890625 23.390625 
Q 54.890625 11.625 47.5625 5.09375 
Q 40.234375 -1.421875 26.90625 -1.421875 
Q 22.3125 -1.421875 17.546875 -0.640625 
Q 12.796875 0.140625 7.71875 1.703125 
L 7.71875 11.625 
Q 12.109375 9.234375 16.796875 8.0625 
Q 21.484375 6.890625 26.703125 6.890625 
Q 35.15625 6.890625 40.078125 11.328125 
Q 45.015625 15.765625 45.015625 23.390625 
Q 45.015625 31 40.078125 35.4375 
Q 35.15625 39.890625 26.703125 39.890625 
Q 22.75 39.890625 18.8125 39.015625 
Q 14.890625 38.140625 10.796875 36.28125 
z
" id="DejaVuSans-53"/>
       </defs>
       <use xlink:href="#DejaVuSans-50"/>
       <use x="63.623047" xlink:href="#DejaVuSans-53"/>
      </g>
     </g>
    </g>
    <g id="xtick_3">
     <g id="line2d_3">
      <g>
       <use style="fill:#262626;stroke:#262626;stroke-width:1.25;" x="409.71" xlink:href="#m2703ed4df7" y="188.530125"/>
      </g>
     </g>
     <g id="text_3">
      <!-- 50 -->
      <g style="fill:#262626;" transform="translate(402.71125 206.388406)scale(0.11 -0.11)">
       <use xlink:href="#DejaVuSans-53"/>
       <use x="63.623047" xlink:href="#DejaVuSans-48"/>
      </g>
     </g>
    </g>
    <g id="xtick_4">
     <g id="line2d_4">
      <g>
       <use style="fill:#262626;stroke:#262626;stroke-width:1.25;" x="448.281429" xlink:href="#m2703ed4df7" y="188.530125"/>
      </g>
     </g>
     <g id="text_4">
      <!-- 75 -->
      <g style="fill:#262626;" transform="translate(441.282679 206.388406)scale(0.11 -0.11)">
       <defs>
        <path d="M 8.203125 72.90625 
L 55.078125 72.90625 
L 55.078125 68.703125 
L 28.609375 0 
L 18.3125 0 
L 43.21875 64.59375 
L 8.203125 64.59375 
z
" id="DejaVuSans-55"/>
       </defs>
       <use xlink:href="#DejaVuSans-55"/>
       <use x="63.623047" xlink:href="#DejaVuSans-53"/>
      </g>
     </g>
    </g>
    <g id="xtick_5">
     <g id="line2d_5">
      <g>
       <use style="fill:#262626;stroke:#262626;stroke-width:1.25;" x="486.852857" xlink:href="#m2703ed4df7" y="188.530125"/>
      </g>
     </g>
     <g id="text_5">
      <!-- 100 -->
      <g style="fill:#262626;" transform="translate(476.354732 206.388406)scale(0.11 -0.11)">
       <defs>
        <path d="M 12.40625 8.296875 
L 28.515625 8.296875 
L 28.515625 63.921875 
L 10.984375 60.40625 
L 10.984375 69.390625 
L 28.421875 72.90625 
L 38.28125 72.90625 
L 38.28125 8.296875 
L 54.390625 8.296875 
L 54.390625 0 
L 12.40625 0 
z
" id="DejaVuSans-49"/>
       </defs>
       <use xlink:href="#DejaVuSans-49"/>
       <use x="63.623047" xlink:href="#DejaVuSans-48"/>
       <use x="127.246094" xlink:href="#DejaVuSans-48"/>
      </g>
     </g>
    </g>
    <g id="text_6">
     <!-- SNR axis (%) -->
     <g style="fill:#262626;" transform="translate(371.025937 237.56366)scale(0.12 -0.12)">
      <defs>
       <path d="M 53.515625 70.515625 
L 53.515625 60.890625 
Q 47.90625 63.578125 42.921875 64.890625 
Q 37.9375 66.21875 33.296875 66.21875 
Q 25.25 66.21875 20.875 63.09375 
Q 16.5 59.96875 16.5 54.203125 
Q 16.5 49.359375 19.40625 46.890625 
Q 22.3125 44.4375 30.421875 42.921875 
L 36.375 41.703125 
Q 47.40625 39.59375 52.65625 34.296875 
Q 57.90625 29 57.90625 20.125 
Q 57.90625 9.515625 50.796875 4.046875 
Q 43.703125 -1.421875 29.984375 -1.421875 
Q 24.8125 -1.421875 18.96875 -0.25 
Q 13.140625 0.921875 6.890625 3.21875 
L 6.890625 13.375 
Q 12.890625 10.015625 18.65625 8.296875 
Q 24.421875 6.59375 29.984375 6.59375 
Q 38.421875 6.59375 43.015625 9.90625 
Q 47.609375 13.234375 47.609375 19.390625 
Q 47.609375 24.75 44.3125 27.78125 
Q 41.015625 30.8125 33.5 32.328125 
L 27.484375 33.5 
Q 16.453125 35.6875 11.515625 40.375 
Q 6.59375 45.0625 6.59375 53.421875 
Q 6.59375 63.09375 13.40625 68.65625 
Q 20.21875 74.21875 32.171875 74.21875 
Q 37.3125 74.21875 42.625 73.28125 
Q 47.953125 72.359375 53.515625 70.515625 
z
" id="DejaVuSans-83"/>
       <path d="M 9.8125 72.90625 
L 23.09375 72.90625 
L 55.421875 11.921875 
L 55.421875 72.90625 
L 64.984375 72.90625 
L 64.984375 0 
L 51.703125 0 
L 19.390625 60.984375 
L 19.390625 0 
L 9.8125 0 
z
" id="DejaVuSans-78"/>
       <path d="M 44.390625 34.1875 
Q 47.5625 33.109375 50.5625 29.59375 
Q 53.5625 26.078125 56.59375 19.921875 
L 66.609375 0 
L 56 0 
L 46.6875 18.703125 
Q 43.0625 26.03125 39.671875 28.421875 
Q 36.28125 30.8125 30.421875 30.8125 
L 19.671875 30.8125 
L 19.671875 0 
L 9.8125 0 
L 9.8125 72.90625 
L 32.078125 72.90625 
Q 44.578125 72.90625 50.734375 67.671875 
Q 56.890625 62.453125 56.890625 51.90625 
Q 56.890625 45.015625 53.6875 40.46875 
Q 50.484375 35.9375 44.390625 34.1875 
z
M 19.671875 64.796875 
L 19.671875 38.921875 
L 32.078125 38.921875 
Q 39.203125 38.921875 42.84375 42.21875 
Q 46.484375 45.515625 46.484375 51.90625 
Q 46.484375 58.296875 42.84375 61.546875 
Q 39.203125 64.796875 32.078125 64.796875 
z
" id="DejaVuSans-82"/>
       <path id="DejaVuSans-32"/>
       <path d="M 34.28125 27.484375 
Q 23.390625 27.484375 19.1875 25 
Q 14.984375 22.515625 14.984375 16.5 
Q 14.984375 11.71875 18.140625 8.90625 
Q 21.296875 6.109375 26.703125 6.109375 
Q 34.1875 6.109375 38.703125 11.40625 
Q 43.21875 16.703125 43.21875 25.484375 
L 43.21875 27.484375 
z
M 52.203125 31.203125 
L 52.203125 0 
L 43.21875 0 
L 43.21875 8.296875 
Q 40.140625 3.328125 35.546875 0.953125 
Q 30.953125 -1.421875 24.3125 -1.421875 
Q 15.921875 -1.421875 10.953125 3.296875 
Q 6 8.015625 6 15.921875 
Q 6 25.140625 12.171875 29.828125 
Q 18.359375 34.515625 30.609375 34.515625 
L 43.21875 34.515625 
L 43.21875 35.40625 
Q 43.21875 41.609375 39.140625 45 
Q 35.0625 48.390625 27.6875 48.390625 
Q 23 48.390625 18.546875 47.265625 
Q 14.109375 46.140625 10.015625 43.890625 
L 10.015625 52.203125 
Q 14.9375 54.109375 19.578125 55.046875 
Q 24.21875 56 28.609375 56 
Q 40.484375 56 46.34375 49.84375 
Q 52.203125 43.703125 52.203125 31.203125 
z
" id="DejaVuSans-97"/>
       <path d="M 54.890625 54.6875 
L 35.109375 28.078125 
L 55.90625 0 
L 45.3125 0 
L 29.390625 21.484375 
L 13.484375 0 
L 2.875 0 
L 24.125 28.609375 
L 4.6875 54.6875 
L 15.28125 54.6875 
L 29.78125 35.203125 
L 44.28125 54.6875 
z
" id="DejaVuSans-120"/>
       <path d="M 9.421875 54.6875 
L 18.40625 54.6875 
L 18.40625 0 
L 9.421875 0 
z
M 9.421875 75.984375 
L 18.40625 75.984375 
L 18.40625 64.59375 
L 9.421875 64.59375 
z
" id="DejaVuSans-105"/>
       <path d="M 44.28125 53.078125 
L 44.28125 44.578125 
Q 40.484375 46.53125 36.375 47.5 
Q 32.28125 48.484375 27.875 48.484375 
Q 21.1875 48.484375 17.84375 46.4375 
Q 14.5 44.390625 14.5 40.28125 
Q 14.5 37.15625 16.890625 35.375 
Q 19.28125 33.59375 26.515625 31.984375 
L 29.59375 31.296875 
Q 39.15625 29.25 43.1875 25.515625 
Q 47.21875 21.78125 47.21875 15.09375 
Q 47.21875 7.46875 41.1875 3.015625 
Q 35.15625 -1.421875 24.609375 -1.421875 
Q 20.21875 -1.421875 15.453125 -0.5625 
Q 10.6875 0.296875 5.421875 2 
L 5.421875 11.28125 
Q 10.40625 8.6875 15.234375 7.390625 
Q 20.0625 6.109375 24.8125 6.109375 
Q 31.15625 6.109375 34.5625 8.28125 
Q 37.984375 10.453125 37.984375 14.40625 
Q 37.984375 18.0625 35.515625 20.015625 
Q 33.0625 21.96875 24.703125 23.78125 
L 21.578125 24.515625 
Q 13.234375 26.265625 9.515625 29.90625 
Q 5.8125 33.546875 5.8125 39.890625 
Q 5.8125 47.609375 11.28125 51.796875 
Q 16.75 56 26.8125 56 
Q 31.78125 56 36.171875 55.265625 
Q 40.578125 54.546875 44.28125 53.078125 
z
" id="DejaVuSans-115"/>
       <path d="M 31 75.875 
Q 24.46875 64.65625 21.28125 53.65625 
Q 18.109375 42.671875 18.109375 31.390625 
Q 18.109375 20.125 21.3125 9.0625 
Q 24.515625 -2 31 -13.1875 
L 23.1875 -13.1875 
Q 15.875 -1.703125 12.234375 9.375 
Q 8.59375 20.453125 8.59375 31.390625 
Q 8.59375 42.28125 12.203125 53.3125 
Q 15.828125 64.359375 23.1875 75.875 
z
" id="DejaVuSans-40"/>
       <path d="M 72.703125 32.078125 
Q 68.453125 32.078125 66.03125 28.46875 
Q 63.625 24.859375 63.625 18.40625 
Q 63.625 12.0625 66.03125 8.421875 
Q 68.453125 4.78125 72.703125 4.78125 
Q 76.859375 4.78125 79.265625 8.421875 
Q 81.6875 12.0625 81.6875 18.40625 
Q 81.6875 24.8125 79.265625 28.4375 
Q 76.859375 32.078125 72.703125 32.078125 
z
M 72.703125 38.28125 
Q 80.421875 38.28125 84.953125 32.90625 
Q 89.5 27.546875 89.5 18.40625 
Q 89.5 9.28125 84.9375 3.921875 
Q 80.375 -1.421875 72.703125 -1.421875 
Q 64.890625 -1.421875 60.34375 3.921875 
Q 55.8125 9.28125 55.8125 18.40625 
Q 55.8125 27.59375 60.375 32.9375 
Q 64.9375 38.28125 72.703125 38.28125 
z
M 22.3125 68.015625 
Q 18.109375 68.015625 15.6875 64.375 
Q 13.28125 60.75 13.28125 54.390625 
Q 13.28125 47.953125 15.671875 44.328125 
Q 18.0625 40.71875 22.3125 40.71875 
Q 26.5625 40.71875 28.96875 44.328125 
Q 31.390625 47.953125 31.390625 54.390625 
Q 31.390625 60.6875 28.953125 64.34375 
Q 26.515625 68.015625 22.3125 68.015625 
z
M 66.40625 74.21875 
L 74.21875 74.21875 
L 28.609375 -1.421875 
L 20.796875 -1.421875 
z
M 22.3125 74.21875 
Q 30.03125 74.21875 34.609375 68.875 
Q 39.203125 63.53125 39.203125 54.390625 
Q 39.203125 45.171875 34.640625 39.84375 
Q 30.078125 34.515625 22.3125 34.515625 
Q 14.546875 34.515625 10.03125 39.859375 
Q 5.515625 45.21875 5.515625 54.390625 
Q 5.515625 63.484375 10.046875 68.84375 
Q 14.59375 74.21875 22.3125 74.21875 
z
" id="DejaVuSans-37"/>
       <path d="M 8.015625 75.875 
L 15.828125 75.875 
Q 23.140625 64.359375 26.78125 53.3125 
Q 30.421875 42.28125 30.421875 31.390625 
Q 30.421875 20.453125 26.78125 9.375 
Q 23.140625 -1.703125 15.828125 -13.1875 
L 8.015625 -13.1875 
Q 14.5 -2 17.703125 9.0625 
Q 20.90625 20.125 20.90625 31.390625 
Q 20.90625 42.671875 17.703125 53.65625 
Q 14.5 64.65625 8.015625 75.875 
z
" id="DejaVuSans-41"/>
      </defs>
      <use xlink:href="#DejaVuSans-83"/>
      <use x="63.476562" xlink:href="#DejaVuSans-78"/>
      <use x="138.28125" xlink:href="#DejaVuSans-82"/>
      <use x="207.763672" xlink:href="#DejaVuSans-32"/>
      <use x="239.550781" xlink:href="#DejaVuSans-97"/>
      <use x="300.830078" xlink:href="#DejaVuSans-120"/>
      <use x="360.009766" xlink:href="#DejaVuSans-105"/>
      <use x="387.792969" xlink:href="#DejaVuSans-115"/>
      <use x="439.892578" xlink:href="#DejaVuSans-32"/>
      <use x="471.679688" xlink:href="#DejaVuSans-40"/>
      <use x="510.693359" xlink:href="#DejaVuSans-37"/>
      <use x="605.712891" xlink:href="#DejaVuSans-41"/>
     </g>
    </g>
   </g>
   <g id="matplotlib.axis_2">
    <g id="ytick_1">
     <g id="line2d_6">
      <defs>
       <path d="M 0 0 
L -6 0 
" id="ma15cad0606" style="stroke:#262626;stroke-width:1.25;"/>
      </defs>
      <g>
       <use style="fill:#262626;stroke:#262626;stroke-width:1.25;" x="324.852857" xlink:href="#ma15cad0606" y="188.530125"/>
      </g>
     </g>
     <g id="text_7">
      <!-- 0.00 -->
      <g style="fill:#262626;" transform="translate(290.86067 192.709266)scale(0.11 -0.11)">
       <defs>
        <path d="M 10.6875 12.40625 
L 21 12.40625 
L 21 0 
L 10.6875 0 
z
" id="DejaVuSans-46"/>
       </defs>
       <use xlink:href="#DejaVuSans-48"/>
       <use x="63.623047" xlink:href="#DejaVuSans-46"/>
       <use x="95.410156" xlink:href="#DejaVuSans-48"/>
       <use x="159.033203" xlink:href="#DejaVuSans-48"/>
      </g>
     </g>
    </g>
    <g id="ytick_2">
     <g id="line2d_7">
      <g>
       <use style="fill:#262626;stroke:#262626;stroke-width:1.25;" x="324.852857" xlink:href="#ma15cad0606" y="152.080125"/>
      </g>
     </g>
     <g id="text_8">
      <!-- 0.25 -->
      <g style="fill:#262626;" transform="translate(290.86067 156.259266)scale(0.11 -0.11)">
       <use xlink:href="#DejaVuSans-48"/>
       <use x="63.623047" xlink:href="#DejaVuSans-46"/>
       <use x="95.410156" xlink:href="#DejaVuSans-50"/>
       <use x="159.033203" xlink:href="#DejaVuSans-53"/>
      </g>
     </g>
    </g>
    <g id="ytick_3">
     <g id="line2d_8">
      <g>
       <use style="fill:#262626;stroke:#262626;stroke-width:1.25;" x="324.852857" xlink:href="#ma15cad0606" y="115.630125"/>
      </g>
     </g>
     <g id="text_9">
      <!-- 0.50 -->
      <g style="fill:#262626;" transform="translate(290.86067 119.809266)scale(0.11 -0.11)">
       <use xlink:href="#DejaVuSans-48"/>
       <use x="63.623047" xlink:href="#DejaVuSans-46"/>
       <use x="95.410156" xlink:href="#DejaVuSans-53"/>
       <use x="159.033203" xlink:href="#DejaVuSans-48"/>
      </g>
     </g>
    </g>
    <g id="ytick_4">
     <g id="line2d_9">
      <g>
       <use style="fill:#262626;stroke:#262626;stroke-width:1.25;" x="324.852857" xlink:href="#ma15cad0606" y="79.180125"/>
      </g>
     </g>
     <g id="text_10">
      <!-- 0.75 -->
      <g style="fill:#262626;" transform="translate(290.86067 83.359266)scale(0.11 -0.11)">
       <use xlink:href="#DejaVuSans-48"/>
       <use x="63.623047" xlink:href="#DejaVuSans-46"/>
       <use x="95.410156" xlink:href="#DejaVuSans-55"/>
       <use x="159.033203" xlink:href="#DejaVuSans-53"/>
      </g>
     </g>
    </g>
    <g id="ytick_5">
     <g id="line2d_10">
      <g>
       <use style="fill:#262626;stroke:#262626;stroke-width:1.25;" x="324.852857" xlink:href="#ma15cad0606" y="42.730125"/>
      </g>
     </g>
     <g id="text_11">
      <!-- 1.00 -->
      <g style="fill:#262626;" transform="translate(290.86067 46.909266)scale(0.11 -0.11)">
       <use xlink:href="#DejaVuSans-49"/>
       <use x="63.623047" xlink:href="#DejaVuSans-46"/>
       <use x="95.410156" xlink:href="#DejaVuSans-48"/>
       <use x="159.033203" xlink:href="#DejaVuSans-48"/>
      </g>
     </g>
    </g>
    <g id="text_12">
     <!-- Probability hit -->
     <g style="fill:#262626;" transform="translate(284.365045 157.07325)rotate(-90)scale(0.12 -0.12)">
      <defs>
       <path d="M 19.671875 64.796875 
L 19.671875 37.40625 
L 32.078125 37.40625 
Q 38.96875 37.40625 42.71875 40.96875 
Q 46.484375 44.53125 46.484375 51.125 
Q 46.484375 57.671875 42.71875 61.234375 
Q 38.96875 64.796875 32.078125 64.796875 
z
M 9.8125 72.90625 
L 32.078125 72.90625 
Q 44.34375 72.90625 50.609375 67.359375 
Q 56.890625 61.8125 56.890625 51.125 
Q 56.890625 40.328125 50.609375 34.8125 
Q 44.34375 29.296875 32.078125 29.296875 
L 19.671875 29.296875 
L 19.671875 0 
L 9.8125 0 
z
" id="DejaVuSans-80"/>
       <path d="M 41.109375 46.296875 
Q 39.59375 47.171875 37.8125 47.578125 
Q 36.03125 48 33.890625 48 
Q 26.265625 48 22.1875 43.046875 
Q 18.109375 38.09375 18.109375 28.8125 
L 18.109375 0 
L 9.078125 0 
L 9.078125 54.6875 
L 18.109375 54.6875 
L 18.109375 46.1875 
Q 20.953125 51.171875 25.484375 53.578125 
Q 30.03125 56 36.53125 56 
Q 37.453125 56 38.578125 55.875 
Q 39.703125 55.765625 41.0625 55.515625 
z
" id="DejaVuSans-114"/>
       <path d="M 30.609375 48.390625 
Q 23.390625 48.390625 19.1875 42.75 
Q 14.984375 37.109375 14.984375 27.296875 
Q 14.984375 17.484375 19.15625 11.84375 
Q 23.34375 6.203125 30.609375 6.203125 
Q 37.796875 6.203125 41.984375 11.859375 
Q 46.1875 17.53125 46.1875 27.296875 
Q 46.1875 37.015625 41.984375 42.703125 
Q 37.796875 48.390625 30.609375 48.390625 
z
M 30.609375 56 
Q 42.328125 56 49.015625 48.375 
Q 55.71875 40.765625 55.71875 27.296875 
Q 55.71875 13.875 49.015625 6.21875 
Q 42.328125 -1.421875 30.609375 -1.421875 
Q 18.84375 -1.421875 12.171875 6.21875 
Q 5.515625 13.875 5.515625 27.296875 
Q 5.515625 40.765625 12.171875 48.375 
Q 18.84375 56 30.609375 56 
z
" id="DejaVuSans-111"/>
       <path d="M 48.6875 27.296875 
Q 48.6875 37.203125 44.609375 42.84375 
Q 40.53125 48.484375 33.40625 48.484375 
Q 26.265625 48.484375 22.1875 42.84375 
Q 18.109375 37.203125 18.109375 27.296875 
Q 18.109375 17.390625 22.1875 11.75 
Q 26.265625 6.109375 33.40625 6.109375 
Q 40.53125 6.109375 44.609375 11.75 
Q 48.6875 17.390625 48.6875 27.296875 
z
M 18.109375 46.390625 
Q 20.953125 51.265625 25.265625 53.625 
Q 29.59375 56 35.59375 56 
Q 45.5625 56 51.78125 48.09375 
Q 58.015625 40.1875 58.015625 27.296875 
Q 58.015625 14.40625 51.78125 6.484375 
Q 45.5625 -1.421875 35.59375 -1.421875 
Q 29.59375 -1.421875 25.265625 0.953125 
Q 20.953125 3.328125 18.109375 8.203125 
L 18.109375 0 
L 9.078125 0 
L 9.078125 75.984375 
L 18.109375 75.984375 
z
" id="DejaVuSans-98"/>
       <path d="M 9.421875 75.984375 
L 18.40625 75.984375 
L 18.40625 0 
L 9.421875 0 
z
" id="DejaVuSans-108"/>
       <path d="M 18.3125 70.21875 
L 18.3125 54.6875 
L 36.8125 54.6875 
L 36.8125 47.703125 
L 18.3125 47.703125 
L 18.3125 18.015625 
Q 18.3125 11.328125 20.140625 9.421875 
Q 21.96875 7.515625 27.59375 7.515625 
L 36.8125 7.515625 
L 36.8125 0 
L 27.59375 0 
Q 17.1875 0 13.234375 3.875 
Q 9.28125 7.765625 9.28125 18.015625 
L 9.28125 47.703125 
L 2.6875 47.703125 
L 2.6875 54.6875 
L 9.28125 54.6875 
L 9.28125 70.21875 
z
" id="DejaVuSans-116"/>
       <path d="M 32.171875 -5.078125 
Q 28.375 -14.84375 24.75 -17.8125 
Q 21.140625 -20.796875 15.09375 -20.796875 
L 7.90625 -20.796875 
L 7.90625 -13.28125 
L 13.1875 -13.28125 
Q 16.890625 -13.28125 18.9375 -11.515625 
Q 21 -9.765625 23.484375 -3.21875 
L 25.09375 0.875 
L 2.984375 54.6875 
L 12.5 54.6875 
L 29.59375 11.921875 
L 46.6875 54.6875 
L 56.203125 54.6875 
z
" id="DejaVuSans-121"/>
       <path d="M 54.890625 33.015625 
L 54.890625 0 
L 45.90625 0 
L 45.90625 32.71875 
Q 45.90625 40.484375 42.875 44.328125 
Q 39.84375 48.1875 33.796875 48.1875 
Q 26.515625 48.1875 22.3125 43.546875 
Q 18.109375 38.921875 18.109375 30.90625 
L 18.109375 0 
L 9.078125 0 
L 9.078125 75.984375 
L 18.109375 75.984375 
L 18.109375 46.1875 
Q 21.34375 51.125 25.703125 53.5625 
Q 30.078125 56 35.796875 56 
Q 45.21875 56 50.046875 50.171875 
Q 54.890625 44.34375 54.890625 33.015625 
z
" id="DejaVuSans-104"/>
      </defs>
      <use xlink:href="#DejaVuSans-80"/>
      <use x="58.552734" xlink:href="#DejaVuSans-114"/>
      <use x="97.416016" xlink:href="#DejaVuSans-111"/>
      <use x="158.597656" xlink:href="#DejaVuSans-98"/>
      <use x="222.074219" xlink:href="#DejaVuSans-97"/>
      <use x="283.353516" xlink:href="#DejaVuSans-98"/>
      <use x="346.830078" xlink:href="#DejaVuSans-105"/>
      <use x="374.613281" xlink:href="#DejaVuSans-108"/>
      <use x="402.396484" xlink:href="#DejaVuSans-105"/>
      <use x="430.179688" xlink:href="#DejaVuSans-116"/>
      <use x="469.388672" xlink:href="#DejaVuSans-121"/>
      <use x="528.568359" xlink:href="#DejaVuSans-32"/>
      <use x="560.355469" xlink:href="#DejaVuSans-104"/>
      <use x="623.734375" xlink:href="#DejaVuSans-105"/>
      <use x="651.517578" xlink:href="#DejaVuSans-116"/>
     </g>
    </g>
   </g>
   <g id="PolyCollection_1">
    <defs>
     <path d="M 332.567143 -139.163508 
L 332.567143 -97.628099 
L 346.593117 -97.609325 
L 360.619091 -111.373888 
L 374.645065 -130.329176 
L 388.671039 -141.05869 
L 402.697013 -145.775936 
L 416.722987 -154.567335 
L 430.748961 -169.629513 
L 444.774935 -184.873938 
L 458.800909 -181.892619 
L 472.826883 -189.190655 
L 486.852857 -191.468835 
L 486.852857 -209.364236 
L 486.852857 -209.364236 
L 472.826883 -207.203432 
L 458.800909 -199.968928 
L 444.774935 -201.575496 
L 430.748961 -187.571557 
L 416.722987 -174.010512 
L 402.697013 -164.808718 
L 388.671039 -169.086145 
L 374.645065 -159.803894 
L 360.619091 -142.309182 
L 346.593117 -133.123746 
L 332.567143 -139.163508 
z
" id="mfcec3595f8" style="stroke:#ffffff;stroke-opacity:0.2;"/>
    </defs>
    <g clip-path="url(#p03305f65ea)">
     <use style="fill:#808080;fill-opacity:0.2;stroke:#ffffff;stroke-opacity:0.2;" x="0" xlink:href="#mfcec3595f8" y="260.69666"/>
    </g>
   </g>
   <g id="line2d_11">
    <path clip-path="url(#p03305f65ea)" d="M 332.567143 142.300857 
L 346.593117 145.330125 
L 360.619091 133.855125 
L 374.645065 115.630125 
L 388.671039 105.624243 
L 402.697013 105.404333 
L 416.722987 96.407737 
L 430.748961 82.096125 
L 444.774935 67.471943 
L 458.800909 69.765887 
L 472.826883 62.499617 
L 486.852857 60.280125 
" style="fill:none;stroke:#1a1a1a;stroke-linecap:round;stroke-width:3;"/>
   </g>
   <g id="patch_3">
    <path d="M 324.852857 188.530125 
L 324.852857 42.730125 
" style="fill:none;stroke:#262626;stroke-linecap:square;stroke-linejoin:miter;stroke-width:1.25;"/>
   </g>
   <g id="patch_4">
    <path d="M 324.852857 188.530125 
L 494.567143 188.530125 
" style="fill:none;stroke:#262626;stroke-linecap:square;stroke-linejoin:miter;stroke-width:1.25;"/>
   </g>
   <g id="text_13">
    <!-- Diagonal of matrix -->
    <g style="fill:#262626;" transform="translate(353.964375 16.318125)scale(0.12 -0.12)">
     <defs>
      <path d="M 19.671875 64.796875 
L 19.671875 8.109375 
L 31.59375 8.109375 
Q 46.6875 8.109375 53.6875 14.9375 
Q 60.6875 21.78125 60.6875 36.53125 
Q 60.6875 51.171875 53.6875 57.984375 
Q 46.6875 64.796875 31.59375 64.796875 
z
M 9.8125 72.90625 
L 30.078125 72.90625 
Q 51.265625 72.90625 61.171875 64.09375 
Q 71.09375 55.28125 71.09375 36.53125 
Q 71.09375 17.671875 61.125 8.828125 
Q 51.171875 0 30.078125 0 
L 9.8125 0 
z
" id="DejaVuSans-68"/>
      <path d="M 45.40625 27.984375 
Q 45.40625 37.75 41.375 43.109375 
Q 37.359375 48.484375 30.078125 48.484375 
Q 22.859375 48.484375 18.828125 43.109375 
Q 14.796875 37.75 14.796875 27.984375 
Q 14.796875 18.265625 18.828125 12.890625 
Q 22.859375 7.515625 30.078125 7.515625 
Q 37.359375 7.515625 41.375 12.890625 
Q 45.40625 18.265625 45.40625 27.984375 
z
M 54.390625 6.78125 
Q 54.390625 -7.171875 48.1875 -13.984375 
Q 42 -20.796875 29.203125 -20.796875 
Q 24.46875 -20.796875 20.265625 -20.09375 
Q 16.0625 -19.390625 12.109375 -17.921875 
L 12.109375 -9.1875 
Q 16.0625 -11.328125 19.921875 -12.34375 
Q 23.78125 -13.375 27.78125 -13.375 
Q 36.625 -13.375 41.015625 -8.765625 
Q 45.40625 -4.15625 45.40625 5.171875 
L 45.40625 9.625 
Q 42.625 4.78125 38.28125 2.390625 
Q 33.9375 0 27.875 0 
Q 17.828125 0 11.671875 7.65625 
Q 5.515625 15.328125 5.515625 27.984375 
Q 5.515625 40.671875 11.671875 48.328125 
Q 17.828125 56 27.875 56 
Q 33.9375 56 38.28125 53.609375 
Q 42.625 51.21875 45.40625 46.390625 
L 45.40625 54.6875 
L 54.390625 54.6875 
z
" id="DejaVuSans-103"/>
      <path d="M 54.890625 33.015625 
L 54.890625 0 
L 45.90625 0 
L 45.90625 32.71875 
Q 45.90625 40.484375 42.875 44.328125 
Q 39.84375 48.1875 33.796875 48.1875 
Q 26.515625 48.1875 22.3125 43.546875 
Q 18.109375 38.921875 18.109375 30.90625 
L 18.109375 0 
L 9.078125 0 
L 9.078125 54.6875 
L 18.109375 54.6875 
L 18.109375 46.1875 
Q 21.34375 51.125 25.703125 53.5625 
Q 30.078125 56 35.796875 56 
Q 45.21875 56 50.046875 50.171875 
Q 54.890625 44.34375 54.890625 33.015625 
z
" id="DejaVuSans-110"/>
      <path d="M 37.109375 75.984375 
L 37.109375 68.5 
L 28.515625 68.5 
Q 23.6875 68.5 21.796875 66.546875 
Q 19.921875 64.59375 19.921875 59.515625 
L 19.921875 54.6875 
L 34.71875 54.6875 
L 34.71875 47.703125 
L 19.921875 47.703125 
L 19.921875 0 
L 10.890625 0 
L 10.890625 47.703125 
L 2.296875 47.703125 
L 2.296875 54.6875 
L 10.890625 54.6875 
L 10.890625 58.5 
Q 10.890625 67.625 15.140625 71.796875 
Q 19.390625 75.984375 28.609375 75.984375 
z
" id="DejaVuSans-102"/>
      <path d="M 52 44.1875 
Q 55.375 50.25 60.0625 53.125 
Q 64.75 56 71.09375 56 
Q 79.640625 56 84.28125 50.015625 
Q 88.921875 44.046875 88.921875 33.015625 
L 88.921875 0 
L 79.890625 0 
L 79.890625 32.71875 
Q 79.890625 40.578125 77.09375 44.375 
Q 74.3125 48.1875 68.609375 48.1875 
Q 61.625 48.1875 57.5625 43.546875 
Q 53.515625 38.921875 53.515625 30.90625 
L 53.515625 0 
L 44.484375 0 
L 44.484375 32.71875 
Q 44.484375 40.625 41.703125 44.40625 
Q 38.921875 48.1875 33.109375 48.1875 
Q 26.21875 48.1875 22.15625 43.53125 
Q 18.109375 38.875 18.109375 30.90625 
L 18.109375 0 
L 9.078125 0 
L 9.078125 54.6875 
L 18.109375 54.6875 
L 18.109375 46.1875 
Q 21.1875 51.21875 25.484375 53.609375 
Q 29.78125 56 35.6875 56 
Q 41.65625 56 45.828125 52.96875 
Q 50 49.953125 52 44.1875 
z
" id="DejaVuSans-109"/>
     </defs>
     <use xlink:href="#DejaVuSans-68"/>
     <use x="77.001953" xlink:href="#DejaVuSans-105"/>
     <use x="104.785156" xlink:href="#DejaVuSans-97"/>
     <use x="166.064453" xlink:href="#DejaVuSans-103"/>
     <use x="229.541016" xlink:href="#DejaVuSans-111"/>
     <use x="290.722656" xlink:href="#DejaVuSans-110"/>
     <use x="354.101562" xlink:href="#DejaVuSans-97"/>
     <use x="415.380859" xlink:href="#DejaVuSans-108"/>
     <use x="443.164062" xlink:href="#DejaVuSans-32"/>
     <use x="474.951172" xlink:href="#DejaVuSans-111"/>
     <use x="536.132812" xlink:href="#DejaVuSans-102"/>
     <use x="571.337891" xlink:href="#DejaVuSans-32"/>
     <use x="603.125" xlink:href="#DejaVuSans-109"/>
     <use x="700.537109" xlink:href="#DejaVuSans-97"/>
     <use x="761.816406" xlink:href="#DejaVuSans-116"/>
     <use x="801.025391" xlink:href="#DejaVuSans-114"/>
     <use x="842.138672" xlink:href="#DejaVuSans-105"/>
     <use x="869.921875" xlink:href="#DejaVuSans-120"/>
    </g>
   </g>
  </g>
  <g id="axes_2">
   <g id="patch_5">
    <path d="M 53.31 188.530125 
L 189.081429 188.530125 
L 189.081429 42.730125 
L 53.31 42.730125 
z
" style="fill:#ffffff;"/>
   </g>
   <g id="matplotlib.axis_3">
    <g id="xtick_6">
     <g id="line2d_12">
      <g>
       <use style="fill:#262626;stroke:#262626;stroke-width:1.25;" x="63.007959" xlink:href="#m2703ed4df7" y="188.530125"/>
      </g>
     </g>
     <g id="text_14">
      <!-- −1.2 -->
      <g style="fill:#262626;" transform="translate(55.710451 222.827918)rotate(-45)scale(0.11 -0.11)">
       <defs>
        <path d="M 10.59375 35.5 
L 73.1875 35.5 
L 73.1875 27.203125 
L 10.59375 27.203125 
z
" id="DejaVuSans-8722"/>
       </defs>
       <use xlink:href="#DejaVuSans-8722"/>
       <use x="83.789062" xlink:href="#DejaVuSans-49"/>
       <use x="147.412109" xlink:href="#DejaVuSans-46"/>
       <use x="179.199219" xlink:href="#DejaVuSans-50"/>
      </g>
     </g>
    </g>
    <g id="xtick_7">
     <g id="line2d_13">
      <g>
       <use style="fill:#262626;stroke:#262626;stroke-width:1.25;" x="82.403878" xlink:href="#m2703ed4df7" y="188.530125"/>
      </g>
     </g>
     <g id="text_15">
      <!-- −0.8 -->
      <g style="fill:#262626;" transform="translate(75.10637 222.827918)rotate(-45)scale(0.11 -0.11)">
       <defs>
        <path d="M 31.78125 34.625 
Q 24.75 34.625 20.71875 30.859375 
Q 16.703125 27.09375 16.703125 20.515625 
Q 16.703125 13.921875 20.71875 10.15625 
Q 24.75 6.390625 31.78125 6.390625 
Q 38.8125 6.390625 42.859375 10.171875 
Q 46.921875 13.96875 46.921875 20.515625 
Q 46.921875 27.09375 42.890625 30.859375 
Q 38.875 34.625 31.78125 34.625 
z
M 21.921875 38.8125 
Q 15.578125 40.375 12.03125 44.71875 
Q 8.5 49.078125 8.5 55.328125 
Q 8.5 64.0625 14.71875 69.140625 
Q 20.953125 74.21875 31.78125 74.21875 
Q 42.671875 74.21875 48.875 69.140625 
Q 55.078125 64.0625 55.078125 55.328125 
Q 55.078125 49.078125 51.53125 44.71875 
Q 48 40.375 41.703125 38.8125 
Q 48.828125 37.15625 52.796875 32.3125 
Q 56.78125 27.484375 56.78125 20.515625 
Q 56.78125 9.90625 50.3125 4.234375 
Q 43.84375 -1.421875 31.78125 -1.421875 
Q 19.734375 -1.421875 13.25 4.234375 
Q 6.78125 9.90625 6.78125 20.515625 
Q 6.78125 27.484375 10.78125 32.3125 
Q 14.796875 37.15625 21.921875 38.8125 
z
M 18.3125 54.390625 
Q 18.3125 48.734375 21.84375 45.5625 
Q 25.390625 42.390625 31.78125 42.390625 
Q 38.140625 42.390625 41.71875 45.5625 
Q 45.3125 48.734375 45.3125 54.390625 
Q 45.3125 60.0625 41.71875 63.234375 
Q 38.140625 66.40625 31.78125 66.40625 
Q 25.390625 66.40625 21.84375 63.234375 
Q 18.3125 60.0625 18.3125 54.390625 
z
" id="DejaVuSans-56"/>
       </defs>
       <use xlink:href="#DejaVuSans-8722"/>
       <use x="83.789062" xlink:href="#DejaVuSans-48"/>
       <use x="147.412109" xlink:href="#DejaVuSans-46"/>
       <use x="179.199219" xlink:href="#DejaVuSans-56"/>
      </g>
     </g>
    </g>
    <g id="xtick_8">
     <g id="line2d_14">
      <g>
       <use style="fill:#262626;stroke:#262626;stroke-width:1.25;" x="101.799796" xlink:href="#m2703ed4df7" y="188.530125"/>
      </g>
     </g>
     <g id="text_16">
      <!-- −0.4 -->
      <g style="fill:#262626;" transform="translate(94.502288 222.827918)rotate(-45)scale(0.11 -0.11)">
       <defs>
        <path d="M 37.796875 64.3125 
L 12.890625 25.390625 
L 37.796875 25.390625 
z
M 35.203125 72.90625 
L 47.609375 72.90625 
L 47.609375 25.390625 
L 58.015625 25.390625 
L 58.015625 17.1875 
L 47.609375 17.1875 
L 47.609375 0 
L 37.796875 0 
L 37.796875 17.1875 
L 4.890625 17.1875 
L 4.890625 26.703125 
z
" id="DejaVuSans-52"/>
       </defs>
       <use xlink:href="#DejaVuSans-8722"/>
       <use x="83.789062" xlink:href="#DejaVuSans-48"/>
       <use x="147.412109" xlink:href="#DejaVuSans-46"/>
       <use x="179.199219" xlink:href="#DejaVuSans-52"/>
      </g>
     </g>
    </g>
    <g id="xtick_9">
     <g id="line2d_15">
      <g>
       <use style="fill:#262626;stroke:#262626;stroke-width:1.25;" x="121.195714" xlink:href="#m2703ed4df7" y="188.530125"/>
      </g>
     </g>
     <g id="text_17">
      <!-- 0 -->
      <g style="fill:#262626;" transform="translate(120.867573 208.889186)rotate(-45)scale(0.11 -0.11)">
       <use xlink:href="#DejaVuSans-48"/>
      </g>
     </g>
    </g>
    <g id="xtick_10">
     <g id="line2d_16">
      <g>
       <use style="fill:#262626;stroke:#262626;stroke-width:1.25;" x="140.591633" xlink:href="#m2703ed4df7" y="188.530125"/>
      </g>
     </g>
     <g id="text_18">
      <!-- 0.3 -->
      <g style="fill:#262626;" transform="translate(136.553059 216.310051)rotate(-45)scale(0.11 -0.11)">
       <defs>
        <path d="M 40.578125 39.3125 
Q 47.65625 37.796875 51.625 33 
Q 55.609375 28.21875 55.609375 21.1875 
Q 55.609375 10.40625 48.1875 4.484375 
Q 40.765625 -1.421875 27.09375 -1.421875 
Q 22.515625 -1.421875 17.65625 -0.515625 
Q 12.796875 0.390625 7.625 2.203125 
L 7.625 11.71875 
Q 11.71875 9.328125 16.59375 8.109375 
Q 21.484375 6.890625 26.8125 6.890625 
Q 36.078125 6.890625 40.9375 10.546875 
Q 45.796875 14.203125 45.796875 21.1875 
Q 45.796875 27.640625 41.28125 31.265625 
Q 36.765625 34.90625 28.71875 34.90625 
L 20.21875 34.90625 
L 20.21875 43.015625 
L 29.109375 43.015625 
Q 36.375 43.015625 40.234375 45.921875 
Q 44.09375 48.828125 44.09375 54.296875 
Q 44.09375 59.90625 40.109375 62.90625 
Q 36.140625 65.921875 28.71875 65.921875 
Q 24.65625 65.921875 20.015625 65.03125 
Q 15.375 64.15625 9.8125 62.3125 
L 9.8125 71.09375 
Q 15.4375 72.65625 20.34375 73.4375 
Q 25.25 74.21875 29.59375 74.21875 
Q 40.828125 74.21875 47.359375 69.109375 
Q 53.90625 64.015625 53.90625 55.328125 
Q 53.90625 49.265625 50.4375 45.09375 
Q 46.96875 40.921875 40.578125 39.3125 
z
" id="DejaVuSans-51"/>
       </defs>
       <use xlink:href="#DejaVuSans-48"/>
       <use x="63.623047" xlink:href="#DejaVuSans-46"/>
       <use x="95.410156" xlink:href="#DejaVuSans-51"/>
      </g>
     </g>
    </g>
    <g id="xtick_11">
     <g id="line2d_17">
      <g>
       <use style="fill:#262626;stroke:#262626;stroke-width:1.25;" x="159.987551" xlink:href="#m2703ed4df7" y="188.530125"/>
      </g>
     </g>
     <g id="text_19">
      <!-- 0.8 -->
      <g style="fill:#262626;" transform="translate(155.948977 216.310051)rotate(-45)scale(0.11 -0.11)">
       <use xlink:href="#DejaVuSans-48"/>
       <use x="63.623047" xlink:href="#DejaVuSans-46"/>
       <use x="95.410156" xlink:href="#DejaVuSans-56"/>
      </g>
     </g>
    </g>
    <g id="xtick_12">
     <g id="line2d_18">
      <g>
       <use style="fill:#262626;stroke:#262626;stroke-width:1.25;" x="179.383469" xlink:href="#m2703ed4df7" y="188.530125"/>
      </g>
     </g>
     <g id="text_20">
      <!-- 1.8 -->
      <g style="fill:#262626;" transform="translate(175.344895 216.310051)rotate(-45)scale(0.11 -0.11)">
       <use xlink:href="#DejaVuSans-49"/>
       <use x="63.623047" xlink:href="#DejaVuSans-46"/>
       <use x="95.410156" xlink:href="#DejaVuSans-56"/>
      </g>
     </g>
    </g>
    <g id="text_21">
     <!-- Binned z-scored pop. variance -->
     <g style="fill:#262626;" transform="translate(30.315402 237.56366)scale(0.12 -0.12)">
      <defs>
       <path d="M 19.671875 34.8125 
L 19.671875 8.109375 
L 35.5 8.109375 
Q 43.453125 8.109375 47.28125 11.40625 
Q 51.125 14.703125 51.125 21.484375 
Q 51.125 28.328125 47.28125 31.5625 
Q 43.453125 34.8125 35.5 34.8125 
z
M 19.671875 64.796875 
L 19.671875 42.828125 
L 34.28125 42.828125 
Q 41.5 42.828125 45.03125 45.53125 
Q 48.578125 48.25 48.578125 53.8125 
Q 48.578125 59.328125 45.03125 62.0625 
Q 41.5 64.796875 34.28125 64.796875 
z
M 9.8125 72.90625 
L 35.015625 72.90625 
Q 46.296875 72.90625 52.390625 68.21875 
Q 58.5 63.53125 58.5 54.890625 
Q 58.5 48.1875 55.375 44.234375 
Q 52.25 40.28125 46.1875 39.3125 
Q 53.46875 37.75 57.5 32.78125 
Q 61.53125 27.828125 61.53125 20.40625 
Q 61.53125 10.640625 54.890625 5.3125 
Q 48.25 0 35.984375 0 
L 9.8125 0 
z
" id="DejaVuSans-66"/>
       <path d="M 56.203125 29.59375 
L 56.203125 25.203125 
L 14.890625 25.203125 
Q 15.484375 15.921875 20.484375 11.0625 
Q 25.484375 6.203125 34.421875 6.203125 
Q 39.59375 6.203125 44.453125 7.46875 
Q 49.3125 8.734375 54.109375 11.28125 
L 54.109375 2.78125 
Q 49.265625 0.734375 44.1875 -0.34375 
Q 39.109375 -1.421875 33.890625 -1.421875 
Q 20.796875 -1.421875 13.15625 6.1875 
Q 5.515625 13.8125 5.515625 26.8125 
Q 5.515625 40.234375 12.765625 48.109375 
Q 20.015625 56 32.328125 56 
Q 43.359375 56 49.78125 48.890625 
Q 56.203125 41.796875 56.203125 29.59375 
z
M 47.21875 32.234375 
Q 47.125 39.59375 43.09375 43.984375 
Q 39.0625 48.390625 32.421875 48.390625 
Q 24.90625 48.390625 20.390625 44.140625 
Q 15.875 39.890625 15.1875 32.171875 
z
" id="DejaVuSans-101"/>
       <path d="M 45.40625 46.390625 
L 45.40625 75.984375 
L 54.390625 75.984375 
L 54.390625 0 
L 45.40625 0 
L 45.40625 8.203125 
Q 42.578125 3.328125 38.25 0.953125 
Q 33.9375 -1.421875 27.875 -1.421875 
Q 17.96875 -1.421875 11.734375 6.484375 
Q 5.515625 14.40625 5.515625 27.296875 
Q 5.515625 40.1875 11.734375 48.09375 
Q 17.96875 56 27.875 56 
Q 33.9375 56 38.25 53.625 
Q 42.578125 51.265625 45.40625 46.390625 
z
M 14.796875 27.296875 
Q 14.796875 17.390625 18.875 11.75 
Q 22.953125 6.109375 30.078125 6.109375 
Q 37.203125 6.109375 41.296875 11.75 
Q 45.40625 17.390625 45.40625 27.296875 
Q 45.40625 37.203125 41.296875 42.84375 
Q 37.203125 48.484375 30.078125 48.484375 
Q 22.953125 48.484375 18.875 42.84375 
Q 14.796875 37.203125 14.796875 27.296875 
z
" id="DejaVuSans-100"/>
       <path d="M 5.515625 54.6875 
L 48.1875 54.6875 
L 48.1875 46.484375 
L 14.40625 7.171875 
L 48.1875 7.171875 
L 48.1875 0 
L 4.296875 0 
L 4.296875 8.203125 
L 38.09375 47.515625 
L 5.515625 47.515625 
z
" id="DejaVuSans-122"/>
       <path d="M 4.890625 31.390625 
L 31.203125 31.390625 
L 31.203125 23.390625 
L 4.890625 23.390625 
z
" id="DejaVuSans-45"/>
       <path d="M 48.78125 52.59375 
L 48.78125 44.1875 
Q 44.96875 46.296875 41.140625 47.34375 
Q 37.3125 48.390625 33.40625 48.390625 
Q 24.65625 48.390625 19.8125 42.84375 
Q 14.984375 37.3125 14.984375 27.296875 
Q 14.984375 17.28125 19.8125 11.734375 
Q 24.65625 6.203125 33.40625 6.203125 
Q 37.3125 6.203125 41.140625 7.25 
Q 44.96875 8.296875 48.78125 10.40625 
L 48.78125 2.09375 
Q 45.015625 0.34375 40.984375 -0.53125 
Q 36.96875 -1.421875 32.421875 -1.421875 
Q 20.0625 -1.421875 12.78125 6.34375 
Q 5.515625 14.109375 5.515625 27.296875 
Q 5.515625 40.671875 12.859375 48.328125 
Q 20.21875 56 33.015625 56 
Q 37.15625 56 41.109375 55.140625 
Q 45.0625 54.296875 48.78125 52.59375 
z
" id="DejaVuSans-99"/>
       <path d="M 18.109375 8.203125 
L 18.109375 -20.796875 
L 9.078125 -20.796875 
L 9.078125 54.6875 
L 18.109375 54.6875 
L 18.109375 46.390625 
Q 20.953125 51.265625 25.265625 53.625 
Q 29.59375 56 35.59375 56 
Q 45.5625 56 51.78125 48.09375 
Q 58.015625 40.1875 58.015625 27.296875 
Q 58.015625 14.40625 51.78125 6.484375 
Q 45.5625 -1.421875 35.59375 -1.421875 
Q 29.59375 -1.421875 25.265625 0.953125 
Q 20.953125 3.328125 18.109375 8.203125 
z
M 48.6875 27.296875 
Q 48.6875 37.203125 44.609375 42.84375 
Q 40.53125 48.484375 33.40625 48.484375 
Q 26.265625 48.484375 22.1875 42.84375 
Q 18.109375 37.203125 18.109375 27.296875 
Q 18.109375 17.390625 22.1875 11.75 
Q 26.265625 6.109375 33.40625 6.109375 
Q 40.53125 6.109375 44.609375 11.75 
Q 48.6875 17.390625 48.6875 27.296875 
z
" id="DejaVuSans-112"/>
       <path d="M 2.984375 54.6875 
L 12.5 54.6875 
L 29.59375 8.796875 
L 46.6875 54.6875 
L 56.203125 54.6875 
L 35.6875 0 
L 23.484375 0 
z
" id="DejaVuSans-118"/>
      </defs>
      <use xlink:href="#DejaVuSans-66"/>
      <use x="68.603516" xlink:href="#DejaVuSans-105"/>
      <use x="96.386719" xlink:href="#DejaVuSans-110"/>
      <use x="159.765625" xlink:href="#DejaVuSans-110"/>
      <use x="223.144531" xlink:href="#DejaVuSans-101"/>
      <use x="284.667969" xlink:href="#DejaVuSans-100"/>
      <use x="348.144531" xlink:href="#DejaVuSans-32"/>
      <use x="379.931641" xlink:href="#DejaVuSans-122"/>
      <use x="432.421875" xlink:href="#DejaVuSans-45"/>
      <use x="468.505859" xlink:href="#DejaVuSans-115"/>
      <use x="520.605469" xlink:href="#DejaVuSans-99"/>
      <use x="575.585938" xlink:href="#DejaVuSans-111"/>
      <use x="636.767578" xlink:href="#DejaVuSans-114"/>
      <use x="675.630859" xlink:href="#DejaVuSans-101"/>
      <use x="737.154297" xlink:href="#DejaVuSans-100"/>
      <use x="800.630859" xlink:href="#DejaVuSans-32"/>
      <use x="832.417969" xlink:href="#DejaVuSans-112"/>
      <use x="895.894531" xlink:href="#DejaVuSans-111"/>
      <use x="957.076172" xlink:href="#DejaVuSans-112"/>
      <use x="1020.552734" xlink:href="#DejaVuSans-46"/>
      <use x="1052.339844" xlink:href="#DejaVuSans-32"/>
      <use x="1084.126953" xlink:href="#DejaVuSans-118"/>
      <use x="1143.306641" xlink:href="#DejaVuSans-97"/>
      <use x="1204.585938" xlink:href="#DejaVuSans-114"/>
      <use x="1245.699219" xlink:href="#DejaVuSans-105"/>
      <use x="1273.482422" xlink:href="#DejaVuSans-97"/>
      <use x="1334.761719" xlink:href="#DejaVuSans-110"/>
      <use x="1398.140625" xlink:href="#DejaVuSans-99"/>
      <use x="1453.121094" xlink:href="#DejaVuSans-101"/>
     </g>
     <!-- (median of bin) -->
     <g style="fill:#262626;" transform="translate(75.146652 251.001035)scale(0.12 -0.12)">
      <use xlink:href="#DejaVuSans-40"/>
      <use x="39.013672" xlink:href="#DejaVuSans-109"/>
      <use x="136.425781" xlink:href="#DejaVuSans-101"/>
      <use x="197.949219" xlink:href="#DejaVuSans-100"/>
      <use x="261.425781" xlink:href="#DejaVuSans-105"/>
      <use x="289.208984" xlink:href="#DejaVuSans-97"/>
      <use x="350.488281" xlink:href="#DejaVuSans-110"/>
      <use x="413.867188" xlink:href="#DejaVuSans-32"/>
      <use x="445.654297" xlink:href="#DejaVuSans-111"/>
      <use x="506.835938" xlink:href="#DejaVuSans-102"/>
      <use x="542.041016" xlink:href="#DejaVuSans-32"/>
      <use x="573.828125" xlink:href="#DejaVuSans-98"/>
      <use x="637.304688" xlink:href="#DejaVuSans-105"/>
      <use x="665.087891" xlink:href="#DejaVuSans-110"/>
      <use x="728.466797" xlink:href="#DejaVuSans-41"/>
     </g>
    </g>
   </g>
   <g id="matplotlib.axis_4">
    <g id="ytick_6">
     <g id="line2d_19">
      <g>
       <use style="fill:#262626;stroke:#262626;stroke-width:1.25;" x="53.31" xlink:href="#ma15cad0606" y="178.115839"/>
      </g>
     </g>
     <g id="text_22">
      <!-- 5 -->
      <g style="fill:#262626;" transform="translate(36.81125 182.29498)scale(0.11 -0.11)">
       <use xlink:href="#DejaVuSans-53"/>
      </g>
     </g>
    </g>
    <g id="ytick_7">
     <g id="line2d_20">
      <g>
       <use style="fill:#262626;stroke:#262626;stroke-width:1.25;" x="53.31" xlink:href="#ma15cad0606" y="157.287268"/>
      </g>
     </g>
     <g id="text_23">
      <!-- 10 -->
      <g style="fill:#262626;" transform="translate(29.8125 161.466408)scale(0.11 -0.11)">
       <use xlink:href="#DejaVuSans-49"/>
       <use x="63.623047" xlink:href="#DejaVuSans-48"/>
      </g>
     </g>
    </g>
    <g id="ytick_8">
     <g id="line2d_21">
      <g>
       <use style="fill:#262626;stroke:#262626;stroke-width:1.25;" x="53.31" xlink:href="#ma15cad0606" y="136.458696"/>
      </g>
     </g>
     <g id="text_24">
      <!-- 20 -->
      <g style="fill:#262626;" transform="translate(29.8125 140.637837)scale(0.11 -0.11)">
       <use xlink:href="#DejaVuSans-50"/>
       <use x="63.623047" xlink:href="#DejaVuSans-48"/>
      </g>
     </g>
    </g>
    <g id="ytick_9">
     <g id="line2d_22">
      <g>
       <use style="fill:#262626;stroke:#262626;stroke-width:1.25;" x="53.31" xlink:href="#ma15cad0606" y="115.630125"/>
      </g>
     </g>
     <g id="text_25">
      <!-- 30 -->
      <g style="fill:#262626;" transform="translate(29.8125 119.809266)scale(0.11 -0.11)">
       <use xlink:href="#DejaVuSans-51"/>
       <use x="63.623047" xlink:href="#DejaVuSans-48"/>
      </g>
     </g>
    </g>
    <g id="ytick_10">
     <g id="line2d_23">
      <g>
       <use style="fill:#262626;stroke:#262626;stroke-width:1.25;" x="53.31" xlink:href="#ma15cad0606" y="94.801554"/>
      </g>
     </g>
     <g id="text_26">
      <!-- 40 -->
      <g style="fill:#262626;" transform="translate(29.8125 98.980694)scale(0.11 -0.11)">
       <use xlink:href="#DejaVuSans-52"/>
       <use x="63.623047" xlink:href="#DejaVuSans-48"/>
      </g>
     </g>
    </g>
    <g id="ytick_11">
     <g id="line2d_24">
      <g>
       <use style="fill:#262626;stroke:#262626;stroke-width:1.25;" x="53.31" xlink:href="#ma15cad0606" y="73.972982"/>
      </g>
     </g>
     <g id="text_27">
      <!-- 50 -->
      <g style="fill:#262626;" transform="translate(29.8125 78.152123)scale(0.11 -0.11)">
       <use xlink:href="#DejaVuSans-53"/>
       <use x="63.623047" xlink:href="#DejaVuSans-48"/>
      </g>
     </g>
    </g>
    <g id="ytick_12">
     <g id="line2d_25">
      <g>
       <use style="fill:#262626;stroke:#262626;stroke-width:1.25;" x="53.31" xlink:href="#ma15cad0606" y="53.144411"/>
      </g>
     </g>
     <g id="text_28">
      <!-- 150 -->
      <g style="fill:#262626;" transform="translate(22.81375 57.323551)scale(0.11 -0.11)">
       <use xlink:href="#DejaVuSans-49"/>
       <use x="63.623047" xlink:href="#DejaVuSans-53"/>
       <use x="127.246094" xlink:href="#DejaVuSans-48"/>
      </g>
     </g>
    </g>
    <g id="text_29">
     <!-- Number of cells targeted -->
     <g style="fill:#262626;" transform="translate(16.318125 190.432312)rotate(-90)scale(0.12 -0.12)">
      <defs>
       <path d="M 8.5 21.578125 
L 8.5 54.6875 
L 17.484375 54.6875 
L 17.484375 21.921875 
Q 17.484375 14.15625 20.5 10.265625 
Q 23.53125 6.390625 29.59375 6.390625 
Q 36.859375 6.390625 41.078125 11.03125 
Q 45.3125 15.671875 45.3125 23.6875 
L 45.3125 54.6875 
L 54.296875 54.6875 
L 54.296875 0 
L 45.3125 0 
L 45.3125 8.40625 
Q 42.046875 3.421875 37.71875 1 
Q 33.40625 -1.421875 27.6875 -1.421875 
Q 18.265625 -1.421875 13.375 4.4375 
Q 8.5 10.296875 8.5 21.578125 
z
M 31.109375 56 
z
" id="DejaVuSans-117"/>
      </defs>
      <use xlink:href="#DejaVuSans-78"/>
      <use x="74.804688" xlink:href="#DejaVuSans-117"/>
      <use x="138.183594" xlink:href="#DejaVuSans-109"/>
      <use x="235.595703" xlink:href="#DejaVuSans-98"/>
      <use x="299.072266" xlink:href="#DejaVuSans-101"/>
      <use x="360.595703" xlink:href="#DejaVuSans-114"/>
      <use x="401.708984" xlink:href="#DejaVuSans-32"/>
      <use x="433.496094" xlink:href="#DejaVuSans-111"/>
      <use x="494.677734" xlink:href="#DejaVuSans-102"/>
      <use x="529.882812" xlink:href="#DejaVuSans-32"/>
      <use x="561.669922" xlink:href="#DejaVuSans-99"/>
      <use x="616.650391" xlink:href="#DejaVuSans-101"/>
      <use x="678.173828" xlink:href="#DejaVuSans-108"/>
      <use x="705.957031" xlink:href="#DejaVuSans-108"/>
      <use x="733.740234" xlink:href="#DejaVuSans-115"/>
      <use x="785.839844" xlink:href="#DejaVuSans-32"/>
      <use x="817.626953" xlink:href="#DejaVuSans-116"/>
      <use x="856.835938" xlink:href="#DejaVuSans-97"/>
      <use x="918.115234" xlink:href="#DejaVuSans-114"/>
      <use x="957.478516" xlink:href="#DejaVuSans-103"/>
      <use x="1020.955078" xlink:href="#DejaVuSans-101"/>
      <use x="1082.478516" xlink:href="#DejaVuSans-116"/>
      <use x="1121.6875" xlink:href="#DejaVuSans-101"/>
      <use x="1183.210938" xlink:href="#DejaVuSans-100"/>
     </g>
    </g>
   </g>
   <g id="QuadMesh_1">
    <path clip-path="url(#p38015a0afa)" d="M 53.31 188.530125 
L 72.705918 188.530125 
L 72.705918 167.701554 
L 53.31 167.701554 
L 53.31 188.530125 
" style="fill:#e9e0e4;"/>
    <path clip-path="url(#p38015a0afa)" d="M 72.705918 188.530125 
L 92.101837 188.530125 
L 92.101837 167.701554 
L 72.705918 167.701554 
L 72.705918 188.530125 
" style="fill:#a8788f;"/>
    <path clip-path="url(#p38015a0afa)" d="M 92.101837 188.530125 
L 111.497755 188.530125 
L 111.497755 167.701554 
L 92.101837 167.701554 
L 92.101837 188.530125 
" style="fill:#a8788f;"/>
    <path clip-path="url(#p38015a0afa)" d="M 111.497755 188.530125 
L 130.893673 188.530125 
L 130.893673 167.701554 
L 111.497755 167.701554 
L 111.497755 188.530125 
" style="fill:#c9adba;"/>
    <path clip-path="url(#p38015a0afa)" d="M 130.893673 188.530125 
L 150.289592 188.530125 
L 150.289592 167.701554 
L 130.893673 167.701554 
L 130.893673 188.530125 
" style="fill:#a8788f;"/>
    <path clip-path="url(#p38015a0afa)" d="M 150.289592 188.530125 
L 169.68551 188.530125 
L 169.68551 167.701554 
L 150.289592 167.701554 
L 150.289592 188.530125 
" style="fill:#a8788f;"/>
    <path clip-path="url(#p38015a0afa)" d="M 169.68551 188.530125 
L 189.081429 188.530125 
L 189.081429 167.701554 
L 169.68551 167.701554 
L 169.68551 188.530125 
" style="fill:#a8788f;"/>
    <path clip-path="url(#p38015a0afa)" d="M 53.31 167.701554 
L 72.705918 167.701554 
L 72.705918 146.872982 
L 53.31 146.872982 
L 53.31 167.701554 
" style="fill:#dce6df;"/>
    <path clip-path="url(#p38015a0afa)" d="M 72.705918 167.701554 
L 92.101837 167.701554 
L 92.101837 146.872982 
L 72.705918 146.872982 
L 72.705918 167.701554 
" style="fill:#dce6df;"/>
    <path clip-path="url(#p38015a0afa)" d="M 92.101837 167.701554 
L 111.497755 167.701554 
L 111.497755 146.872982 
L 92.101837 146.872982 
L 92.101837 167.701554 
" style="fill:#a9bcb0;"/>
    <path clip-path="url(#p38015a0afa)" d="M 111.497755 167.701554 
L 130.893673 167.701554 
L 130.893673 146.872982 
L 111.497755 146.872982 
L 111.497755 167.701554 
" style="fill:#c9adba;"/>
    <path clip-path="url(#p38015a0afa)" d="M 130.893673 167.701554 
L 150.289592 167.701554 
L 150.289592 146.872982 
L 130.893673 146.872982 
L 130.893673 167.701554 
" style="fill:#c9adba;"/>
    <path clip-path="url(#p38015a0afa)" d="M 150.289592 167.701554 
L 169.68551 167.701554 
L 169.68551 146.872982 
L 150.289592 146.872982 
L 150.289592 167.701554 
" style="fill:#e9e0e4;"/>
    <path clip-path="url(#p38015a0afa)" d="M 169.68551 167.701554 
L 189.081429 167.701554 
L 189.081429 146.872982 
L 169.68551 146.872982 
L 169.68551 167.701554 
" style="fill:#c9adba;"/>
    <path clip-path="url(#p38015a0afa)" d="M 53.31 146.872982 
L 72.705918 146.872982 
L 72.705918 126.044411 
L 53.31 126.044411 
L 53.31 146.872982 
" style="fill:#a9bcb0;"/>
    <path clip-path="url(#p38015a0afa)" d="M 72.705918 146.872982 
L 92.101837 146.872982 
L 92.101837 126.044411 
L 72.705918 126.044411 
L 72.705918 146.872982 
" style="fill:#749180;"/>
    <path clip-path="url(#p38015a0afa)" d="M 92.101837 146.872982 
L 111.497755 146.872982 
L 111.497755 126.044411 
L 92.101837 126.044411 
L 92.101837 146.872982 
" style="fill:#dce6df;"/>
    <path clip-path="url(#p38015a0afa)" d="M 111.497755 146.872982 
L 130.893673 146.872982 
L 130.893673 126.044411 
L 111.497755 126.044411 
L 111.497755 146.872982 
" style="fill:#749180;"/>
    <path clip-path="url(#p38015a0afa)" d="M 130.893673 146.872982 
L 150.289592 146.872982 
L 150.289592 126.044411 
L 130.893673 126.044411 
L 130.893673 146.872982 
" style="fill:#a9bcb0;"/>
    <path clip-path="url(#p38015a0afa)" d="M 150.289592 146.872982 
L 169.68551 146.872982 
L 169.68551 126.044411 
L 150.289592 126.044411 
L 150.289592 146.872982 
" style="fill:#c9adba;"/>
    <path clip-path="url(#p38015a0afa)" d="M 169.68551 146.872982 
L 189.081429 146.872982 
L 189.081429 126.044411 
L 169.68551 126.044411 
L 169.68551 146.872982 
" style="fill:#a8788f;"/>
    <path clip-path="url(#p38015a0afa)" d="M 53.31 126.044411 
L 72.705918 126.044411 
L 72.705918 105.215839 
L 53.31 105.215839 
L 53.31 126.044411 
" style="fill:#426852;"/>
    <path clip-path="url(#p38015a0afa)" d="M 72.705918 126.044411 
L 92.101837 126.044411 
L 92.101837 105.215839 
L 72.705918 105.215839 
L 72.705918 126.044411 
" style="fill:#749180;"/>
    <path clip-path="url(#p38015a0afa)" d="M 92.101837 126.044411 
L 111.497755 126.044411 
L 111.497755 105.215839 
L 92.101837 105.215839 
L 92.101837 126.044411 
" style="fill:#c9adba;"/>
    <path clip-path="url(#p38015a0afa)" d="M 111.497755 126.044411 
L 130.893673 126.044411 
L 130.893673 105.215839 
L 111.497755 105.215839 
L 111.497755 126.044411 
" style="fill:#dce6df;"/>
    <path clip-path="url(#p38015a0afa)" d="M 130.893673 126.044411 
L 150.289592 126.044411 
L 150.289592 105.215839 
L 130.893673 105.215839 
L 130.893673 126.044411 
" style="fill:#e9e0e4;"/>
    <path clip-path="url(#p38015a0afa)" d="M 150.289592 126.044411 
L 169.68551 126.044411 
L 169.68551 105.215839 
L 150.289592 105.215839 
L 150.289592 126.044411 
" style="fill:#749180;"/>
    <path clip-path="url(#p38015a0afa)" d="M 169.68551 126.044411 
L 189.081429 126.044411 
L 189.081429 105.215839 
L 169.68551 105.215839 
L 169.68551 126.044411 
" style="fill:#dce6df;"/>
    <path clip-path="url(#p38015a0afa)" d="M 53.31 105.215839 
L 72.705918 105.215839 
L 72.705918 84.387268 
L 53.31 84.387268 
L 53.31 105.215839 
" style="fill:#749180;"/>
    <path clip-path="url(#p38015a0afa)" d="M 72.705918 105.215839 
L 92.101837 105.215839 
L 92.101837 84.387268 
L 72.705918 84.387268 
L 72.705918 105.215839 
" style="fill:#426852;"/>
    <path clip-path="url(#p38015a0afa)" d="M 92.101837 105.215839 
L 111.497755 105.215839 
L 111.497755 84.387268 
L 92.101837 84.387268 
L 92.101837 105.215839 
" style="fill:#749180;"/>
    <path clip-path="url(#p38015a0afa)" d="M 111.497755 105.215839 
L 130.893673 105.215839 
L 130.893673 84.387268 
L 111.497755 84.387268 
L 111.497755 105.215839 
" style="fill:#dce6df;"/>
    <path clip-path="url(#p38015a0afa)" d="M 130.893673 105.215839 
L 150.289592 105.215839 
L 150.289592 84.387268 
L 130.893673 84.387268 
L 130.893673 105.215839 
" style="fill:#e9e0e4;"/>
    <path clip-path="url(#p38015a0afa)" d="M 150.289592 105.215839 
L 169.68551 105.215839 
L 169.68551 84.387268 
L 150.289592 84.387268 
L 150.289592 105.215839 
" style="fill:#a9bcb0;"/>
    <path clip-path="url(#p38015a0afa)" d="M 169.68551 105.215839 
L 189.081429 105.215839 
L 189.081429 84.387268 
L 169.68551 84.387268 
L 169.68551 105.215839 
" style="fill:#e9e0e4;"/>
    <path clip-path="url(#p38015a0afa)" d="M 53.31 84.387268 
L 72.705918 84.387268 
L 72.705918 63.558696 
L 53.31 63.558696 
L 53.31 84.387268 
" style="fill:#103f24;"/>
    <path clip-path="url(#p38015a0afa)" d="M 72.705918 84.387268 
L 92.101837 84.387268 
L 92.101837 63.558696 
L 72.705918 63.558696 
L 72.705918 84.387268 
" style="fill:#426852;"/>
    <path clip-path="url(#p38015a0afa)" d="M 92.101837 84.387268 
L 111.497755 84.387268 
L 111.497755 63.558696 
L 92.101837 63.558696 
L 92.101837 84.387268 
" style="fill:#426852;"/>
    <path clip-path="url(#p38015a0afa)" d="M 111.497755 84.387268 
L 130.893673 84.387268 
L 130.893673 63.558696 
L 111.497755 63.558696 
L 111.497755 84.387268 
" style="fill:#a9bcb0;"/>
    <path clip-path="url(#p38015a0afa)" d="M 130.893673 84.387268 
L 150.289592 84.387268 
L 150.289592 63.558696 
L 130.893673 63.558696 
L 130.893673 84.387268 
" style="fill:#e9e0e4;"/>
    <path clip-path="url(#p38015a0afa)" d="M 150.289592 84.387268 
L 169.68551 84.387268 
L 169.68551 63.558696 
L 150.289592 63.558696 
L 150.289592 84.387268 
" style="fill:#749180;"/>
    <path clip-path="url(#p38015a0afa)" d="M 169.68551 84.387268 
L 189.081429 84.387268 
L 189.081429 63.558696 
L 169.68551 63.558696 
L 169.68551 84.387268 
" style="fill:#749180;"/>
    <path clip-path="url(#p38015a0afa)" d="M 53.31 63.558696 
L 72.705918 63.558696 
L 72.705918 42.730125 
L 53.31 42.730125 
L 53.31 63.558696 
" style="fill:#426852;"/>
    <path clip-path="url(#p38015a0afa)" d="M 72.705918 63.558696 
L 92.101837 63.558696 
L 92.101837 42.730125 
L 72.705918 42.730125 
L 72.705918 63.558696 
" style="fill:#426852;"/>
    <path clip-path="url(#p38015a0afa)" d="M 92.101837 63.558696 
L 111.497755 63.558696 
L 111.497755 42.730125 
L 92.101837 42.730125 
L 92.101837 63.558696 
" style="fill:#426852;"/>
    <path clip-path="url(#p38015a0afa)" d="M 111.497755 63.558696 
L 130.893673 63.558696 
L 130.893673 42.730125 
L 111.497755 42.730125 
L 111.497755 63.558696 
" style="fill:#426852;"/>
    <path clip-path="url(#p38015a0afa)" d="M 130.893673 63.558696 
L 150.289592 63.558696 
L 150.289592 42.730125 
L 130.893673 42.730125 
L 130.893673 63.558696 
" style="fill:#749180;"/>
    <path clip-path="url(#p38015a0afa)" d="M 150.289592 63.558696 
L 169.68551 63.558696 
L 169.68551 42.730125 
L 150.289592 42.730125 
L 150.289592 63.558696 
" style="fill:#a9bcb0;"/>
    <path clip-path="url(#p38015a0afa)" d="M 169.68551 63.558696 
L 189.081429 63.558696 
L 189.081429 42.730125 
L 169.68551 42.730125 
L 169.68551 63.558696 
" style="fill:#a9bcb0;"/>
   </g>
   <g id="patch_6">
    <path d="M 63.007959 53.144411 
L 71.579825 57.194617 
L 69.18656 59.764658 
L 179.390327 178.108475 
L 179.376612 178.123203 
L 69.172845 59.779386 
L 66.77958 62.349426 
z
" style="fill:#1a1a1a;stroke:#1a1a1a;stroke-linejoin:miter;stroke-width:3;"/>
   </g>
   <g id="text_30">
    <!-- SNR axis -->
    <g style="fill:#262626;" transform="translate(113.262428 95.33202)rotate(-315)scale(0.12 -0.12)">
     <defs>
      <path d="M 59.90625 70.609375 
L 59.90625 55.171875 
Q 53.90625 57.859375 48.1875 59.21875 
Q 42.484375 60.59375 37.40625 60.59375 
Q 30.671875 60.59375 27.4375 58.734375 
Q 24.21875 56.890625 24.21875 52.984375 
Q 24.21875 50.046875 26.390625 48.40625 
Q 28.5625 46.78125 34.28125 45.609375 
L 42.28125 44 
Q 54.4375 41.546875 59.5625 36.5625 
Q 64.703125 31.59375 64.703125 22.40625 
Q 64.703125 10.359375 57.546875 4.46875 
Q 50.390625 -1.421875 35.6875 -1.421875 
Q 28.765625 -1.421875 21.78125 -0.09375 
Q 14.796875 1.21875 7.8125 3.8125 
L 7.8125 19.671875 
Q 14.796875 15.96875 21.3125 14.078125 
Q 27.828125 12.203125 33.890625 12.203125 
Q 40.046875 12.203125 43.3125 14.25 
Q 46.578125 16.3125 46.578125 20.125 
Q 46.578125 23.53125 44.359375 25.390625 
Q 42.140625 27.25 35.5 28.71875 
L 28.21875 30.328125 
Q 17.28125 32.671875 12.21875 37.796875 
Q 7.171875 42.921875 7.171875 51.609375 
Q 7.171875 62.5 14.203125 68.359375 
Q 21.234375 74.21875 34.421875 74.21875 
Q 40.4375 74.21875 46.78125 73.3125 
Q 53.125 72.40625 59.90625 70.609375 
z
" id="DejaVuSans-Bold-83"/>
      <path d="M 9.1875 72.90625 
L 30.171875 72.90625 
L 56.6875 22.90625 
L 56.6875 72.90625 
L 74.515625 72.90625 
L 74.515625 0 
L 53.515625 0 
L 27 50 
L 27 0 
L 9.1875 0 
z
" id="DejaVuSans-Bold-78"/>
      <path d="M 35.890625 40.578125 
Q 41.796875 40.578125 44.359375 42.765625 
Q 46.921875 44.96875 46.921875 50 
Q 46.921875 54.984375 44.359375 57.125 
Q 41.796875 59.28125 35.890625 59.28125 
L 27.984375 59.28125 
L 27.984375 40.578125 
z
M 27.984375 27.59375 
L 27.984375 0 
L 9.1875 0 
L 9.1875 72.90625 
L 37.890625 72.90625 
Q 52.296875 72.90625 59 68.0625 
Q 65.71875 63.234375 65.71875 52.78125 
Q 65.71875 45.5625 62.21875 40.921875 
Q 58.734375 36.28125 51.703125 34.078125 
Q 55.5625 33.203125 58.609375 30.09375 
Q 61.671875 27 64.796875 20.703125 
L 75 0 
L 54.984375 0 
L 46.09375 18.109375 
Q 43.40625 23.578125 40.640625 25.578125 
Q 37.890625 27.59375 33.296875 27.59375 
z
" id="DejaVuSans-Bold-82"/>
      <path id="DejaVuSans-Bold-32"/>
      <path d="M 32.90625 24.609375 
Q 27.4375 24.609375 24.671875 22.75 
Q 21.921875 20.90625 21.921875 17.28125 
Q 21.921875 13.96875 24.140625 12.078125 
Q 26.375 10.203125 30.328125 10.203125 
Q 35.25 10.203125 38.625 13.734375 
Q 42 17.28125 42 22.609375 
L 42 24.609375 
z
M 59.625 31.203125 
L 59.625 0 
L 42 0 
L 42 8.109375 
Q 38.484375 3.125 34.078125 0.84375 
Q 29.6875 -1.421875 23.390625 -1.421875 
Q 14.890625 -1.421875 9.59375 3.53125 
Q 4.296875 8.5 4.296875 16.40625 
Q 4.296875 26.03125 10.90625 30.515625 
Q 17.53125 35.015625 31.6875 35.015625 
L 42 35.015625 
L 42 36.375 
Q 42 40.53125 38.71875 42.453125 
Q 35.453125 44.390625 28.515625 44.390625 
Q 22.90625 44.390625 18.0625 43.265625 
Q 13.234375 42.140625 9.078125 39.890625 
L 9.078125 53.21875 
Q 14.703125 54.59375 20.359375 55.296875 
Q 26.03125 56 31.6875 56 
Q 46.484375 56 53.046875 50.171875 
Q 59.625 44.34375 59.625 31.203125 
z
" id="DejaVuSans-Bold-97"/>
      <path d="M 22.21875 27.984375 
L 2.484375 54.6875 
L 21 54.6875 
L 32.171875 38.484375 
L 43.5 54.6875 
L 62.015625 54.6875 
L 42.28125 28.078125 
L 62.984375 0 
L 44.484375 0 
L 32.171875 17.28125 
L 20.015625 0 
L 1.515625 0 
z
" id="DejaVuSans-Bold-120"/>
      <path d="M 8.40625 54.6875 
L 25.875 54.6875 
L 25.875 0 
L 8.40625 0 
z
M 8.40625 75.984375 
L 25.875 75.984375 
L 25.875 61.71875 
L 8.40625 61.71875 
z
" id="DejaVuSans-Bold-105"/>
      <path d="M 51.125 52.984375 
L 51.125 39.703125 
Q 45.515625 42.046875 40.28125 43.21875 
Q 35.0625 44.390625 30.421875 44.390625 
Q 25.4375 44.390625 23.015625 43.140625 
Q 20.609375 41.890625 20.609375 39.3125 
Q 20.609375 37.203125 22.4375 36.078125 
Q 24.265625 34.96875 29 34.421875 
L 32.078125 33.984375 
Q 45.515625 32.28125 50.140625 28.375 
Q 54.78125 24.46875 54.78125 16.109375 
Q 54.78125 7.375 48.328125 2.96875 
Q 41.890625 -1.421875 29.109375 -1.421875 
Q 23.6875 -1.421875 17.890625 -0.5625 
Q 12.109375 0.296875 6 2 
L 6 15.28125 
Q 11.234375 12.75 16.71875 11.46875 
Q 22.21875 10.203125 27.875 10.203125 
Q 33.015625 10.203125 35.59375 11.609375 
Q 38.1875 13.03125 38.1875 15.828125 
Q 38.1875 18.171875 36.40625 19.3125 
Q 34.625 20.453125 29.296875 21.09375 
L 26.21875 21.484375 
Q 14.546875 22.953125 9.859375 26.90625 
Q 5.171875 30.859375 5.171875 38.921875 
Q 5.171875 47.609375 11.125 51.796875 
Q 17.09375 56 29.390625 56 
Q 34.234375 56 39.546875 55.265625 
Q 44.875 54.546875 51.125 52.984375 
z
" id="DejaVuSans-Bold-115"/>
     </defs>
     <use xlink:href="#DejaVuSans-Bold-83"/>
     <use x="72.021484" xlink:href="#DejaVuSans-Bold-78"/>
     <use x="155.712891" xlink:href="#DejaVuSans-Bold-82"/>
     <use x="232.714844" xlink:href="#DejaVuSans-Bold-32"/>
     <use x="267.529297" xlink:href="#DejaVuSans-Bold-97"/>
     <use x="335.009766" xlink:href="#DejaVuSans-Bold-120"/>
     <use x="399.511719" xlink:href="#DejaVuSans-Bold-105"/>
     <use x="433.789062" xlink:href="#DejaVuSans-Bold-115"/>
    </g>
   </g>
   <g id="text_31">
    <!-- 0% -->
    <g style="fill:#262626;" transform="translate(166.601204 154.026088)rotate(-315)scale(0.12 -0.12)">
     <defs>
      <path d="M 46 36.53125 
Q 46 50.203125 43.4375 55.78125 
Q 40.875 61.375 34.8125 61.375 
Q 28.765625 61.375 26.171875 55.78125 
Q 23.578125 50.203125 23.578125 36.53125 
Q 23.578125 22.703125 26.171875 17.03125 
Q 28.765625 11.375 34.8125 11.375 
Q 40.828125 11.375 43.40625 17.03125 
Q 46 22.703125 46 36.53125 
z
M 64.796875 36.375 
Q 64.796875 18.265625 56.984375 8.421875 
Q 49.171875 -1.421875 34.8125 -1.421875 
Q 20.40625 -1.421875 12.59375 8.421875 
Q 4.78125 18.265625 4.78125 36.375 
Q 4.78125 54.546875 12.59375 64.375 
Q 20.40625 74.21875 34.8125 74.21875 
Q 49.171875 74.21875 56.984375 64.375 
Q 64.796875 54.546875 64.796875 36.375 
z
" id="DejaVuSans-Bold-48"/>
      <path d="M 77.484375 30.078125 
Q 74.03125 30.078125 72.125 27.078125 
Q 70.21875 24.078125 70.21875 18.5 
Q 70.21875 12.890625 72.09375 9.890625 
Q 73.96875 6.890625 77.484375 6.890625 
Q 81 6.890625 82.859375 9.890625 
Q 84.71875 12.890625 84.71875 18.5 
Q 84.71875 24.078125 82.828125 27.078125 
Q 80.953125 30.078125 77.484375 30.078125 
z
M 77.484375 38.28125 
Q 86.578125 38.28125 91.796875 33 
Q 97.015625 27.734375 97.015625 18.5 
Q 97.015625 9.28125 91.796875 3.921875 
Q 86.578125 -1.421875 77.484375 -1.421875 
Q 68.40625 -1.421875 63.15625 3.921875 
Q 57.90625 9.28125 57.90625 18.5 
Q 57.90625 27.6875 63.15625 32.984375 
Q 68.40625 38.28125 77.484375 38.28125 
z
M 32.71875 -1.421875 
L 21.921875 -1.421875 
L 67.484375 74.21875 
L 78.328125 74.21875 
z
M 22.703125 74.21875 
Q 31.78125 74.21875 36.984375 68.921875 
Q 42.1875 63.625 42.1875 54.390625 
Q 42.1875 45.171875 36.984375 39.84375 
Q 31.78125 34.515625 22.703125 34.515625 
Q 13.625 34.515625 8.421875 39.84375 
Q 3.21875 45.171875 3.21875 54.390625 
Q 3.21875 63.625 8.421875 68.921875 
Q 13.625 74.21875 22.703125 74.21875 
z
M 22.703125 66.015625 
Q 19.1875 66.015625 17.28125 62.984375 
Q 15.375 59.96875 15.375 54.390625 
Q 15.375 48.78125 17.28125 45.71875 
Q 19.1875 42.671875 22.703125 42.671875 
Q 26.21875 42.671875 28.09375 45.71875 
Q 29.984375 48.78125 29.984375 54.390625 
Q 29.984375 59.96875 28.078125 62.984375 
Q 26.171875 66.015625 22.703125 66.015625 
z
" id="DejaVuSans-Bold-37"/>
     </defs>
     <use xlink:href="#DejaVuSans-Bold-48"/>
     <use x="69.580078" xlink:href="#DejaVuSans-Bold-37"/>
    </g>
   </g>
   <g id="text_32">
    <!-- 100% -->
    <g style="fill:#262626;" transform="translate(74.470592 54.738289)rotate(-315)scale(0.12 -0.12)">
     <defs>
      <path d="M 11.71875 12.984375 
L 28.328125 12.984375 
L 28.328125 60.109375 
L 11.28125 56.59375 
L 11.28125 69.390625 
L 28.21875 72.90625 
L 46.09375 72.90625 
L 46.09375 12.984375 
L 62.703125 12.984375 
L 62.703125 0 
L 11.71875 0 
z
" id="DejaVuSans-Bold-49"/>
     </defs>
     <use xlink:href="#DejaVuSans-Bold-49"/>
     <use x="69.580078" xlink:href="#DejaVuSans-Bold-48"/>
     <use x="139.160156" xlink:href="#DejaVuSans-Bold-48"/>
     <use x="208.740234" xlink:href="#DejaVuSans-Bold-37"/>
    </g>
   </g>
   <g id="text_33">
    <!-- a -->
    <g style="fill:#262626;" transform="translate(3.345703 18.248766)scale(0.18 -0.18)">
     <use xlink:href="#DejaVuSans-Bold-97"/>
    </g>
   </g>
   <g id="text_34">
    <!-- b -->
    <g style="fill:#262626;" transform="translate(267.65625 18.248766)scale(0.18 -0.18)">
     <defs>
      <path d="M 37.5 11.28125 
Q 43.109375 11.28125 46.0625 15.375 
Q 49.03125 19.484375 49.03125 27.296875 
Q 49.03125 35.109375 46.0625 39.203125 
Q 43.109375 43.3125 37.5 43.3125 
Q 31.890625 43.3125 28.875 39.1875 
Q 25.875 35.0625 25.875 27.296875 
Q 25.875 19.53125 28.875 15.40625 
Q 31.890625 11.28125 37.5 11.28125 
z
M 25.875 46.6875 
Q 29.5 51.46875 33.890625 53.734375 
Q 38.28125 56 44 56 
Q 54.109375 56 60.59375 47.96875 
Q 67.09375 39.9375 67.09375 27.296875 
Q 67.09375 14.65625 60.59375 6.609375 
Q 54.109375 -1.421875 44 -1.421875 
Q 38.28125 -1.421875 33.890625 0.84375 
Q 29.5 3.125 25.875 7.90625 
L 25.875 0 
L 8.40625 0 
L 8.40625 75.984375 
L 25.875 75.984375 
z
" id="DejaVuSans-Bold-98"/>
     </defs>
     <use xlink:href="#DejaVuSans-Bold-98"/>
    </g>
   </g>
   <g id="text_35">
    <!-- c -->
    <g style="fill:#262626;" transform="translate(538.658203 18.248766)scale(0.18 -0.18)">
     <defs>
      <path d="M 52.59375 52.984375 
L 52.59375 38.71875 
Q 49.03125 41.15625 45.4375 42.328125 
Q 41.84375 43.5 37.984375 43.5 
Q 30.671875 43.5 26.59375 39.234375 
Q 22.515625 34.96875 22.515625 27.296875 
Q 22.515625 19.625 26.59375 15.34375 
Q 30.671875 11.078125 37.984375 11.078125 
Q 42.09375 11.078125 45.78125 12.296875 
Q 49.46875 13.53125 52.59375 15.921875 
L 52.59375 1.609375 
Q 48.484375 0.09375 44.265625 -0.65625 
Q 40.046875 -1.421875 35.796875 -1.421875 
Q 21 -1.421875 12.640625 6.171875 
Q 4.296875 13.765625 4.296875 27.296875 
Q 4.296875 40.828125 12.640625 48.40625 
Q 21 56 35.796875 56 
Q 40.09375 56 44.265625 55.25 
Q 48.4375 54.5 52.59375 52.984375 
z
" id="DejaVuSans-Bold-99"/>
     </defs>
     <use xlink:href="#DejaVuSans-Bold-99"/>
    </g>
   </g>
   <g id="text_36">
    <!-- P(hit) depends on pop. variance -->
    <g style="fill:#262626;" transform="translate(25.206027 17.46075)scale(0.12 -0.12)">
     <use xlink:href="#DejaVuSans-80"/>
     <use x="60.302734" xlink:href="#DejaVuSans-40"/>
     <use x="99.316406" xlink:href="#DejaVuSans-104"/>
     <use x="162.695312" xlink:href="#DejaVuSans-105"/>
     <use x="190.478516" xlink:href="#DejaVuSans-116"/>
     <use x="229.6875" xlink:href="#DejaVuSans-41"/>
     <use x="268.701172" xlink:href="#DejaVuSans-32"/>
     <use x="300.488281" xlink:href="#DejaVuSans-100"/>
     <use x="363.964844" xlink:href="#DejaVuSans-101"/>
     <use x="425.488281" xlink:href="#DejaVuSans-112"/>
     <use x="488.964844" xlink:href="#DejaVuSans-101"/>
     <use x="550.488281" xlink:href="#DejaVuSans-110"/>
     <use x="613.867188" xlink:href="#DejaVuSans-100"/>
     <use x="677.34375" xlink:href="#DejaVuSans-115"/>
     <use x="729.443359" xlink:href="#DejaVuSans-32"/>
     <use x="761.230469" xlink:href="#DejaVuSans-111"/>
     <use x="822.412109" xlink:href="#DejaVuSans-110"/>
     <use x="885.791016" xlink:href="#DejaVuSans-32"/>
     <use x="917.578125" xlink:href="#DejaVuSans-112"/>
     <use x="981.054688" xlink:href="#DejaVuSans-111"/>
     <use x="1042.236328" xlink:href="#DejaVuSans-112"/>
     <use x="1105.712891" xlink:href="#DejaVuSans-46"/>
     <use x="1137.5" xlink:href="#DejaVuSans-32"/>
     <use x="1169.287109" xlink:href="#DejaVuSans-118"/>
     <use x="1228.466797" xlink:href="#DejaVuSans-97"/>
     <use x="1289.746094" xlink:href="#DejaVuSans-114"/>
     <use x="1330.859375" xlink:href="#DejaVuSans-105"/>
     <use x="1358.642578" xlink:href="#DejaVuSans-97"/>
     <use x="1419.921875" xlink:href="#DejaVuSans-110"/>
     <use x="1483.300781" xlink:href="#DejaVuSans-99"/>
     <use x="1538.28125" xlink:href="#DejaVuSans-101"/>
    </g>
    <!--  and number of cells targeted -->
    <g style="fill:#262626;" transform="translate(31.977589 30.898125)scale(0.12 -0.12)">
     <use xlink:href="#DejaVuSans-32"/>
     <use x="31.787109" xlink:href="#DejaVuSans-97"/>
     <use x="93.066406" xlink:href="#DejaVuSans-110"/>
     <use x="156.445312" xlink:href="#DejaVuSans-100"/>
     <use x="219.921875" xlink:href="#DejaVuSans-32"/>
     <use x="251.708984" xlink:href="#DejaVuSans-110"/>
     <use x="315.087891" xlink:href="#DejaVuSans-117"/>
     <use x="378.466797" xlink:href="#DejaVuSans-109"/>
     <use x="475.878906" xlink:href="#DejaVuSans-98"/>
     <use x="539.355469" xlink:href="#DejaVuSans-101"/>
     <use x="600.878906" xlink:href="#DejaVuSans-114"/>
     <use x="641.992188" xlink:href="#DejaVuSans-32"/>
     <use x="673.779297" xlink:href="#DejaVuSans-111"/>
     <use x="734.960938" xlink:href="#DejaVuSans-102"/>
     <use x="770.166016" xlink:href="#DejaVuSans-32"/>
     <use x="801.953125" xlink:href="#DejaVuSans-99"/>
     <use x="856.933594" xlink:href="#DejaVuSans-101"/>
     <use x="918.457031" xlink:href="#DejaVuSans-108"/>
     <use x="946.240234" xlink:href="#DejaVuSans-108"/>
     <use x="974.023438" xlink:href="#DejaVuSans-115"/>
     <use x="1026.123047" xlink:href="#DejaVuSans-32"/>
     <use x="1057.910156" xlink:href="#DejaVuSans-116"/>
     <use x="1097.119141" xlink:href="#DejaVuSans-97"/>
     <use x="1158.398438" xlink:href="#DejaVuSans-114"/>
     <use x="1197.761719" xlink:href="#DejaVuSans-103"/>
     <use x="1261.238281" xlink:href="#DejaVuSans-101"/>
     <use x="1322.761719" xlink:href="#DejaVuSans-116"/>
     <use x="1361.970703" xlink:href="#DejaVuSans-101"/>
     <use x="1423.494141" xlink:href="#DejaVuSans-100"/>
    </g>
   </g>
  </g>
  <g id="axes_3">
   <g id="patch_7">
    <path clip-path="url(#pec0f8848a2)" d="M 197.567143 188.530125 
L 197.567143 173.950125 
L 197.567143 57.310125 
L 197.567143 42.730125 
L 204.857143 42.730125 
L 204.857143 57.310125 
L 204.857143 173.950125 
L 204.857143 188.530125 
z
" style="fill:#ffffff;stroke:#ffffff;stroke-linejoin:miter;stroke-width:0.01;"/>
   </g>
   <g id="matplotlib.axis_5"/>
   <g id="matplotlib.axis_6">
    <g id="ytick_13">
     <g id="line2d_26">
      <defs>
       <path d="M 0 0 
L 6 0 
" id="mddaaf972f0" style="stroke:#262626;stroke-width:1.25;"/>
      </defs>
      <g>
       <use style="fill:#262626;stroke:#262626;stroke-width:1.25;" x="204.857143" xlink:href="#mddaaf972f0" y="188.530125"/>
      </g>
     </g>
     <g id="text_37">
      <!-- 0.0 -->
      <g style="fill:#262626;" transform="translate(214.357143 192.709266)scale(0.11 -0.11)">
       <use xlink:href="#DejaVuSans-48"/>
       <use x="63.623047" xlink:href="#DejaVuSans-46"/>
       <use x="95.410156" xlink:href="#DejaVuSans-48"/>
      </g>
     </g>
    </g>
    <g id="ytick_14">
     <g id="line2d_27">
      <g>
       <use style="fill:#262626;stroke:#262626;stroke-width:1.25;" x="204.857143" xlink:href="#mddaaf972f0" y="159.370125"/>
      </g>
     </g>
     <g id="text_38">
      <!-- 0.2 -->
      <g style="fill:#262626;" transform="translate(214.357143 163.549266)scale(0.11 -0.11)">
       <use xlink:href="#DejaVuSans-48"/>
       <use x="63.623047" xlink:href="#DejaVuSans-46"/>
       <use x="95.410156" xlink:href="#DejaVuSans-50"/>
      </g>
     </g>
    </g>
    <g id="ytick_15">
     <g id="line2d_28">
      <g>
       <use style="fill:#262626;stroke:#262626;stroke-width:1.25;" x="204.857143" xlink:href="#mddaaf972f0" y="130.210125"/>
      </g>
     </g>
     <g id="text_39">
      <!-- 0.4 -->
      <g style="fill:#262626;" transform="translate(214.357143 134.389266)scale(0.11 -0.11)">
       <use xlink:href="#DejaVuSans-48"/>
       <use x="63.623047" xlink:href="#DejaVuSans-46"/>
       <use x="95.410156" xlink:href="#DejaVuSans-52"/>
      </g>
     </g>
    </g>
    <g id="ytick_16">
     <g id="line2d_29">
      <g>
       <use style="fill:#262626;stroke:#262626;stroke-width:1.25;" x="204.857143" xlink:href="#mddaaf972f0" y="101.050125"/>
      </g>
     </g>
     <g id="text_40">
      <!-- 0.6 -->
      <g style="fill:#262626;" transform="translate(214.357143 105.229266)scale(0.11 -0.11)">
       <defs>
        <path d="M 33.015625 40.375 
Q 26.375 40.375 22.484375 35.828125 
Q 18.609375 31.296875 18.609375 23.390625 
Q 18.609375 15.53125 22.484375 10.953125 
Q 26.375 6.390625 33.015625 6.390625 
Q 39.65625 6.390625 43.53125 10.953125 
Q 47.40625 15.53125 47.40625 23.390625 
Q 47.40625 31.296875 43.53125 35.828125 
Q 39.65625 40.375 33.015625 40.375 
z
M 52.59375 71.296875 
L 52.59375 62.3125 
Q 48.875 64.0625 45.09375 64.984375 
Q 41.3125 65.921875 37.59375 65.921875 
Q 27.828125 65.921875 22.671875 59.328125 
Q 17.53125 52.734375 16.796875 39.40625 
Q 19.671875 43.65625 24.015625 45.921875 
Q 28.375 48.1875 33.59375 48.1875 
Q 44.578125 48.1875 50.953125 41.515625 
Q 57.328125 34.859375 57.328125 23.390625 
Q 57.328125 12.15625 50.6875 5.359375 
Q 44.046875 -1.421875 33.015625 -1.421875 
Q 20.359375 -1.421875 13.671875 8.265625 
Q 6.984375 17.96875 6.984375 36.375 
Q 6.984375 53.65625 15.1875 63.9375 
Q 23.390625 74.21875 37.203125 74.21875 
Q 40.921875 74.21875 44.703125 73.484375 
Q 48.484375 72.75 52.59375 71.296875 
z
" id="DejaVuSans-54"/>
       </defs>
       <use xlink:href="#DejaVuSans-48"/>
       <use x="63.623047" xlink:href="#DejaVuSans-46"/>
       <use x="95.410156" xlink:href="#DejaVuSans-54"/>
      </g>
     </g>
    </g>
    <g id="ytick_17">
     <g id="line2d_30">
      <g>
       <use style="fill:#262626;stroke:#262626;stroke-width:1.25;" x="204.857143" xlink:href="#mddaaf972f0" y="71.890125"/>
      </g>
     </g>
     <g id="text_41">
      <!-- 0.8 -->
      <g style="fill:#262626;" transform="translate(214.357143 76.069266)scale(0.11 -0.11)">
       <use xlink:href="#DejaVuSans-48"/>
       <use x="63.623047" xlink:href="#DejaVuSans-46"/>
       <use x="95.410156" xlink:href="#DejaVuSans-56"/>
      </g>
     </g>
    </g>
    <g id="ytick_18">
     <g id="line2d_31">
      <g>
       <use style="fill:#262626;stroke:#262626;stroke-width:1.25;" x="204.857143" xlink:href="#mddaaf972f0" y="42.730125"/>
      </g>
     </g>
     <g id="text_42">
      <!-- 1.0 -->
      <g style="fill:#262626;" transform="translate(214.357143 46.909266)scale(0.11 -0.11)">
       <use xlink:href="#DejaVuSans-49"/>
       <use x="63.623047" xlink:href="#DejaVuSans-46"/>
       <use x="95.410156" xlink:href="#DejaVuSans-48"/>
      </g>
     </g>
    </g>
    <g id="text_43">
     <!-- Probability hit -->
     <g style="fill:#262626;" transform="translate(244.968705 157.07325)rotate(-90)scale(0.12 -0.12)">
      <use xlink:href="#DejaVuSans-80"/>
      <use x="58.552734" xlink:href="#DejaVuSans-114"/>
      <use x="97.416016" xlink:href="#DejaVuSans-111"/>
      <use x="158.597656" xlink:href="#DejaVuSans-98"/>
      <use x="222.074219" xlink:href="#DejaVuSans-97"/>
      <use x="283.353516" xlink:href="#DejaVuSans-98"/>
      <use x="346.830078" xlink:href="#DejaVuSans-105"/>
      <use x="374.613281" xlink:href="#DejaVuSans-108"/>
      <use x="402.396484" xlink:href="#DejaVuSans-105"/>
      <use x="430.179688" xlink:href="#DejaVuSans-116"/>
      <use x="469.388672" xlink:href="#DejaVuSans-121"/>
      <use x="528.568359" xlink:href="#DejaVuSans-32"/>
      <use x="560.355469" xlink:href="#DejaVuSans-104"/>
      <use x="623.734375" xlink:href="#DejaVuSans-105"/>
      <use x="651.517578" xlink:href="#DejaVuSans-116"/>
     </g>
    </g>
   </g>
   <g id="QuadMesh_2">
    <path clip-path="url(#pec0f8848a2)" d="M 197.567143 188.530125 
L 204.857143 188.530125 
L 204.857143 173.950125 
L 197.567143 173.950125 
L 197.567143 188.530125 
" style="fill:#6a123c;"/>
    <path clip-path="url(#pec0f8848a2)" d="M 197.567143 173.950125 
L 204.857143 173.950125 
L 204.857143 159.370125 
L 197.567143 159.370125 
L 197.567143 173.950125 
" style="fill:#894565;"/>
    <path clip-path="url(#pec0f8848a2)" d="M 197.567143 159.370125 
L 204.857143 159.370125 
L 204.857143 144.790125 
L 197.567143 144.790125 
L 197.567143 159.370125 
" style="fill:#a8788f;"/>
    <path clip-path="url(#pec0f8848a2)" d="M 197.567143 144.790125 
L 204.857143 144.790125 
L 204.857143 130.210125 
L 197.567143 130.210125 
L 197.567143 144.790125 
" style="fill:#c9adba;"/>
    <path clip-path="url(#pec0f8848a2)" d="M 197.567143 130.210125 
L 204.857143 130.210125 
L 204.857143 115.630125 
L 197.567143 115.630125 
L 197.567143 130.210125 
" style="fill:#e9e0e4;"/>
    <path clip-path="url(#pec0f8848a2)" d="M 197.567143 115.630125 
L 204.857143 115.630125 
L 204.857143 101.050125 
L 197.567143 101.050125 
L 197.567143 115.630125 
" style="fill:#dce6df;"/>
    <path clip-path="url(#pec0f8848a2)" d="M 197.567143 101.050125 
L 204.857143 101.050125 
L 204.857143 86.470125 
L 197.567143 86.470125 
L 197.567143 101.050125 
" style="fill:#a9bcb0;"/>
    <path clip-path="url(#pec0f8848a2)" d="M 197.567143 86.470125 
L 204.857143 86.470125 
L 204.857143 71.890125 
L 197.567143 71.890125 
L 197.567143 86.470125 
" style="fill:#749180;"/>
    <path clip-path="url(#pec0f8848a2)" d="M 197.567143 71.890125 
L 204.857143 71.890125 
L 204.857143 57.310125 
L 197.567143 57.310125 
L 197.567143 71.890125 
" style="fill:#426852;"/>
    <path clip-path="url(#pec0f8848a2)" d="M 197.567143 57.310125 
L 204.857143 57.310125 
L 204.857143 42.730125 
L 197.567143 42.730125 
L 197.567143 57.310125 
" style="fill:#103f24;"/>
   </g>
   <g id="patch_8">
    <path d="M 197.567143 188.530125 
L 197.567143 173.950125 
L 197.567143 57.310125 
L 197.567143 42.730125 
L 204.857143 42.730125 
L 204.857143 57.310125 
L 204.857143 173.950125 
L 204.857143 188.530125 
z
" style="fill:none;"/>
   </g>
  </g>
 </g>
 <defs>
  <clipPath id="p03305f65ea">
   <rect height="145.8" width="169.714286" x="324.852857" y="42.730125"/>
  </clipPath>
  <clipPath id="p38015a0afa">
   <rect height="145.8" width="135.771429" x="53.31" y="42.730125"/>
  </clipPath>
  <clipPath id="pec0f8848a2">
   <rect height="145.8" width="7.29" x="197.567143" y="42.730125"/>
  </clipPath>
 </defs>
</svg>
